<svg width="454" height="312" viewBox="0 0 454 312" fill="none" xmlns="http://www.w3.org/2000/svg">
<rect width="453.466" height="312" rx="30" fill="#F8F5EC"/>
<path d="M144.11 162.35C143.79 162.57 143.31 162.84 142.67 163.16C142.05 163.46 141.31 163.72 140.45 163.94C139.61 164.16 138.68 164.26 137.66 164.24C135.96 164.22 134.43 163.92 133.07 163.34C131.73 162.76 130.59 161.97 129.65 160.97C128.71 159.95 127.98 158.79 127.46 157.49C126.96 156.17 126.71 154.77 126.71 153.29C126.71 151.65 126.97 150.15 127.49 148.79C128.01 147.41 128.75 146.21 129.71 145.19C130.69 144.17 131.83 143.38 133.13 142.82C134.45 142.26 135.89 141.98 137.45 141.98C138.79 141.98 140 142.16 141.08 142.52C142.16 142.88 143.07 143.3 143.81 143.78L142.55 146.78C141.97 146.38 141.25 146 140.39 145.64C139.55 145.26 138.61 145.07 137.57 145.07C136.55 145.07 135.58 145.28 134.66 145.7C133.76 146.1 132.96 146.67 132.26 147.41C131.58 148.13 131.04 148.98 130.64 149.96C130.24 150.92 130.04 151.97 130.04 153.11C130.04 154.27 130.22 155.34 130.58 156.32C130.94 157.3 131.45 158.15 132.11 158.87C132.79 159.59 133.6 160.15 134.54 160.55C135.48 160.95 136.54 161.15 137.72 161.15C138.84 161.15 139.82 160.98 140.66 160.64C141.52 160.3 142.22 159.91 142.76 159.47L144.11 162.35ZM147.149 157.58C147.149 156.32 147.449 155.19 148.049 154.19C148.649 153.17 149.479 152.37 150.539 151.79C151.599 151.21 152.809 150.92 154.169 150.92C155.549 150.92 156.759 151.21 157.799 151.79C158.839 152.37 159.639 153.17 160.199 154.19C160.779 155.19 161.069 156.32 161.069 157.58C161.069 158.84 160.779 159.98 160.199 161C159.639 162.02 158.839 162.83 157.799 163.43C156.759 164.01 155.539 164.3 154.139 164.3C152.799 164.3 151.599 164.03 150.539 163.49C149.499 162.95 148.669 162.18 148.049 161.18C147.449 160.16 147.149 158.96 147.149 157.58ZM150.269 157.61C150.269 158.39 150.439 159.1 150.779 159.74C151.119 160.36 151.579 160.86 152.159 161.24C152.739 161.6 153.389 161.78 154.109 161.78C154.849 161.78 155.509 161.6 156.089 161.24C156.669 160.86 157.119 160.36 157.439 159.74C157.779 159.1 157.949 158.39 157.949 157.61C157.949 156.83 157.779 156.13 157.439 155.51C157.119 154.89 156.669 154.39 156.089 154.01C155.509 153.63 154.849 153.44 154.109 153.44C153.369 153.44 152.709 153.63 152.129 154.01C151.549 154.39 151.089 154.9 150.749 155.54C150.429 156.16 150.269 156.85 150.269 157.61ZM167.484 151.43L167.754 154.13L167.634 153.92C168.114 152.98 168.774 152.25 169.614 151.73C170.454 151.19 171.424 150.92 172.524 150.92C173.204 150.92 173.814 151.03 174.354 151.25C174.914 151.47 175.374 151.78 175.734 152.18C176.094 152.58 176.324 153.08 176.424 153.68L176.274 153.77C176.774 152.89 177.434 152.2 178.254 151.7C179.094 151.18 179.984 150.92 180.924 150.92C182.144 150.92 183.114 151.27 183.834 151.97C184.574 152.67 184.954 153.57 184.974 154.67V164H181.914V155.84C181.894 155.22 181.744 154.7 181.464 154.28C181.204 153.86 180.734 153.63 180.054 153.59C179.334 153.59 178.694 153.81 178.134 154.25C177.594 154.69 177.174 155.26 176.874 155.96C176.574 156.66 176.414 157.41 176.394 158.21V164H173.304V155.84C173.284 155.22 173.134 154.7 172.854 154.28C172.574 153.86 172.084 153.63 171.384 153.59C170.664 153.59 170.034 153.81 169.494 154.25C168.954 154.69 168.534 155.27 168.234 155.99C167.954 156.69 167.814 157.43 167.814 158.21V164H164.724V151.43H167.484ZM192.474 151.43L192.744 154.13L192.624 153.92C193.104 152.98 193.764 152.25 194.604 151.73C195.444 151.19 196.414 150.92 197.514 150.92C198.194 150.92 198.804 151.03 199.344 151.25C199.904 151.47 200.364 151.78 200.724 152.18C201.084 152.58 201.314 153.08 201.414 153.68L201.264 153.77C201.764 152.89 202.424 152.2 203.244 151.7C204.084 151.18 204.974 150.92 205.914 150.92C207.134 150.92 208.104 151.27 208.824 151.97C209.564 152.67 209.944 153.57 209.964 154.67V164H206.904V155.84C206.884 155.22 206.734 154.7 206.454 154.28C206.194 153.86 205.724 153.63 205.044 153.59C204.324 153.59 203.684 153.81 203.124 154.25C202.584 154.69 202.164 155.26 201.864 155.96C201.564 156.66 201.404 157.41 201.384 158.21V164H198.294V155.84C198.274 155.22 198.124 154.7 197.844 154.28C197.564 153.86 197.074 153.63 196.374 153.59C195.654 153.59 195.024 153.81 194.484 154.25C193.944 154.69 193.524 155.27 193.224 155.99C192.944 156.69 192.804 157.43 192.804 158.21V164H189.714V151.43H192.474ZM214.704 151.43H217.794V164H214.704V151.43ZM214.524 146.93C214.524 146.45 214.714 146.05 215.094 145.73C215.474 145.41 215.884 145.25 216.324 145.25C216.784 145.25 217.194 145.41 217.554 145.73C217.914 146.05 218.094 146.45 218.094 146.93C218.094 147.41 217.914 147.81 217.554 148.13C217.194 148.43 216.784 148.58 216.324 148.58C215.884 148.58 215.474 148.43 215.094 148.13C214.714 147.81 214.524 147.41 214.524 146.93ZM225.257 151.43L225.527 154.31L225.407 153.92C225.827 153.02 226.477 152.3 227.357 151.76C228.237 151.2 229.277 150.92 230.477 150.92C231.657 150.92 232.627 151.27 233.387 151.97C234.167 152.67 234.567 153.58 234.587 154.7V164H231.497V155.78C231.477 155.14 231.287 154.62 230.927 154.22C230.567 153.8 230.007 153.58 229.247 153.56C228.567 153.56 227.947 153.77 227.387 154.19C226.827 154.59 226.387 155.14 226.067 155.84C225.747 156.54 225.587 157.35 225.587 158.27V164H222.497V151.43H225.257ZM245.463 170.24C244.483 170.24 243.633 170.13 242.913 169.91C242.193 169.69 241.543 169.38 240.963 168.98C240.403 168.6 239.863 168.19 239.343 167.75L241.173 165.62C241.793 166.2 242.433 166.66 243.093 167C243.753 167.36 244.523 167.54 245.403 167.54C246.283 167.54 247.033 167.39 247.653 167.09C248.293 166.81 248.783 166.41 249.123 165.89C249.463 165.37 249.633 164.75 249.633 164.03L249.663 160.76L249.873 161.36C249.533 162.18 248.903 162.88 247.983 163.46C247.063 164.02 245.933 164.3 244.593 164.3C243.453 164.3 242.393 164.01 241.413 163.43C240.453 162.85 239.683 162.06 239.103 161.06C238.523 160.06 238.233 158.93 238.233 157.67C238.233 156.35 238.533 155.19 239.133 154.19C239.753 153.17 240.563 152.37 241.563 151.79C242.563 151.19 243.633 150.89 244.773 150.89C245.893 150.89 246.893 151.11 247.773 151.55C248.653 151.97 249.313 152.5 249.753 153.14L249.573 153.65L249.903 151.43H252.753V164.06C252.753 165.22 252.443 166.26 251.823 167.18C251.223 168.12 250.383 168.86 249.303 169.4C248.223 169.96 246.943 170.24 245.463 170.24ZM241.353 157.58C241.353 158.36 241.533 159.07 241.893 159.71C242.253 160.35 242.743 160.86 243.363 161.24C244.003 161.6 244.713 161.78 245.493 161.78C246.193 161.78 246.823 161.66 247.383 161.42C247.943 161.16 248.413 160.82 248.793 160.4C249.193 159.96 249.483 159.45 249.663 158.87V156.26C249.483 155.68 249.193 155.19 248.793 154.79C248.393 154.37 247.913 154.04 247.353 153.8C246.793 153.56 246.173 153.44 245.493 153.44C244.713 153.44 244.003 153.62 243.363 153.98C242.743 154.32 242.253 154.8 241.893 155.42C241.533 156.04 241.353 156.76 241.353 157.58ZM270.688 164.27C269.768 164.27 268.878 164.11 268.018 163.79C267.158 163.45 266.448 162.96 265.888 162.32L267.208 160.58C267.748 161.08 268.288 161.46 268.828 161.72C269.388 161.96 269.918 162.08 270.418 162.08C270.818 162.08 271.178 162.04 271.498 161.96C271.818 161.86 272.078 161.7 272.278 161.48C272.478 161.26 272.578 160.97 272.578 160.61C272.578 160.19 272.438 159.86 272.158 159.62C271.878 159.38 271.518 159.18 271.078 159.02C270.638 158.86 270.168 158.71 269.668 158.57C268.608 158.23 267.808 157.75 267.268 157.13C266.728 156.49 266.458 155.74 266.458 154.88C266.458 154.22 266.618 153.6 266.938 153.02C267.278 152.42 267.788 151.93 268.468 151.55C269.148 151.17 269.988 150.98 270.988 150.98C271.908 150.98 272.718 151.09 273.418 151.31C274.118 151.51 274.768 151.86 275.368 152.36L274.168 154.22C273.808 153.86 273.378 153.59 272.878 153.41C272.398 153.21 271.958 153.1 271.558 153.08C271.198 153.08 270.868 153.14 270.568 153.26C270.268 153.36 270.028 153.52 269.848 153.74C269.668 153.94 269.578 154.18 269.578 154.46C269.558 154.86 269.688 155.19 269.968 155.45C270.268 155.69 270.648 155.89 271.108 156.05C271.568 156.19 272.018 156.34 272.458 156.5C273.078 156.68 273.628 156.93 274.108 157.25C274.588 157.55 274.968 157.92 275.248 158.36C275.528 158.8 275.668 159.36 275.668 160.04C275.668 160.78 275.488 161.48 275.128 162.14C274.768 162.78 274.218 163.3 273.478 163.7C272.738 164.08 271.808 164.27 270.688 164.27ZM278.399 157.58C278.399 156.32 278.699 155.19 279.299 154.19C279.899 153.17 280.729 152.37 281.789 151.79C282.849 151.21 284.059 150.92 285.419 150.92C286.799 150.92 288.009 151.21 289.049 151.79C290.089 152.37 290.889 153.17 291.449 154.19C292.029 155.19 292.319 156.32 292.319 157.58C292.319 158.84 292.029 159.98 291.449 161C290.889 162.02 290.089 162.83 289.049 163.43C288.009 164.01 286.789 164.3 285.389 164.3C284.049 164.3 282.849 164.03 281.789 163.49C280.749 162.95 279.919 162.18 279.299 161.18C278.699 160.16 278.399 158.96 278.399 157.58ZM281.519 157.61C281.519 158.39 281.689 159.1 282.029 159.74C282.369 160.36 282.829 160.86 283.409 161.24C283.989 161.6 284.639 161.78 285.359 161.78C286.099 161.78 286.759 161.6 287.339 161.24C287.919 160.86 288.369 160.36 288.689 159.74C289.029 159.1 289.199 158.39 289.199 157.61C289.199 156.83 289.029 156.13 288.689 155.51C288.369 154.89 287.919 154.39 287.339 154.01C286.759 153.63 286.099 153.44 285.359 153.44C284.619 153.44 283.959 153.63 283.379 154.01C282.799 154.39 282.339 154.9 281.999 155.54C281.679 156.16 281.519 156.85 281.519 157.61ZM294.894 157.58C294.894 156.32 295.194 155.19 295.794 154.19C296.394 153.17 297.224 152.37 298.284 151.79C299.344 151.21 300.554 150.92 301.914 150.92C303.294 150.92 304.504 151.21 305.544 151.79C306.584 152.37 307.384 153.17 307.944 154.19C308.524 155.19 308.814 156.32 308.814 157.58C308.814 158.84 308.524 159.98 307.944 161C307.384 162.02 306.584 162.83 305.544 163.43C304.504 164.01 303.284 164.3 301.884 164.3C300.544 164.3 299.344 164.03 298.284 163.49C297.244 162.95 296.414 162.18 295.794 161.18C295.194 160.16 294.894 158.96 294.894 157.58ZM298.014 157.61C298.014 158.39 298.184 159.1 298.524 159.74C298.864 160.36 299.324 160.86 299.904 161.24C300.484 161.6 301.134 161.78 301.854 161.78C302.594 161.78 303.254 161.6 303.834 161.24C304.414 160.86 304.864 160.36 305.184 159.74C305.524 159.1 305.694 158.39 305.694 157.61C305.694 156.83 305.524 156.13 305.184 155.51C304.864 154.89 304.414 154.39 303.834 154.01C303.254 153.63 302.594 153.44 301.854 153.44C301.114 153.44 300.454 153.63 299.874 154.01C299.294 154.39 298.834 154.9 298.494 155.54C298.174 156.16 298.014 156.85 298.014 157.61ZM315.228 151.43L315.498 154.31L315.378 153.92C315.798 153.02 316.448 152.3 317.328 151.76C318.208 151.2 319.248 150.92 320.448 150.92C321.628 150.92 322.598 151.27 323.358 151.97C324.138 152.67 324.538 153.58 324.558 154.7V164H321.468V155.78C321.448 155.14 321.258 154.62 320.898 154.22C320.538 153.8 319.978 153.58 319.218 153.56C318.538 153.56 317.918 153.77 317.358 154.19C316.798 154.59 316.358 155.14 316.038 155.84C315.718 156.54 315.558 157.35 315.558 158.27V164H312.468V151.43H315.228ZM327.814 162.29C327.814 161.81 327.984 161.41 328.324 161.09C328.684 160.75 329.084 160.58 329.524 160.58C329.924 160.58 330.294 160.75 330.634 161.09C330.994 161.41 331.174 161.81 331.174 162.29C331.174 162.81 330.994 163.23 330.634 163.55C330.294 163.85 329.924 164 329.524 164C329.084 164 328.684 163.85 328.324 163.55C327.984 163.23 327.814 162.81 327.814 162.29ZM332.882 162.29C332.882 161.81 333.052 161.41 333.392 161.09C333.752 160.75 334.152 160.58 334.592 160.58C334.992 160.58 335.362 160.75 335.702 161.09C336.062 161.41 336.242 161.81 336.242 162.29C336.242 162.81 336.062 163.23 335.702 163.55C335.362 163.85 334.992 164 334.592 164C334.152 164 333.752 163.85 333.392 163.55C333.052 163.23 332.882 162.81 332.882 162.29ZM337.951 162.29C337.951 161.81 338.121 161.41 338.461 161.09C338.821 160.75 339.221 160.58 339.661 160.58C340.061 160.58 340.431 160.75 340.771 161.09C341.131 161.41 341.311 161.81 341.311 162.29C341.311 162.81 341.131 163.23 340.771 163.55C340.431 163.85 340.061 164 339.661 164C339.221 164 338.821 163.85 338.461 163.55C338.121 163.23 337.951 162.81 337.951 162.29Z" fill="#89BCD9"/>
</svg>
