<?xml version="1.0" encoding="UTF-8"?>
<svg xmlns="http://www.w3.org/2000/svg" width="36" height="36" viewBox="374 365 1295 1083">
  <path fill="#89BCD9" fill-rule="evenodd" d="M 1422 1167 L 1419 1167 L 1410 1159 L 1407 1159 L 1398 1153 L 1387 1151 L 1386 1149 L 1366 1147 L 1365 1145 L 1341 1145 L 1340 1147 L 1312 1149 L 1308 1153 L 1299 1152 L 1296 1154 L 1294 1159 L 1279 1165 L 1270 1173 L 1264 1174 L 1260 1181 L 1257 1181 L 1256 1173 L 1254 1172 L 1254 1165 L 1252 1164 L 1250 1157 L 1247 1157 L 1246 1155 L 1239 1155 L 1237 1153 L 1192 1153 L 1190 1151 L 1186 1151 L 1184 1155 L 1179 1155 L 1173 1161 L 1173 1387 L 1170 1388 L 1170 1394 L 1173 1395 L 1173 1397 L 1170 1398 L 1170 1403 L 1173 1404 L 1173 1407 L 1170 1408 L 1170 1419 L 1173 1420 L 1173 1424 L 1177 1428 L 1180 1428 L 1181 1430 L 1195 1430 L 1203 1432 L 1241 1430 L 1242 1433 L 1245 1433 L 1246 1430 L 1249 1430 L 1250 1433 L 1253 1433 L 1253 1431 L 1257 1428 L 1262 1428 L 1264 1426 L 1264 1257 L 1266 1256 L 1266 1249 L 1268 1248 L 1268 1243 L 1279 1230 L 1291 1229 L 1292 1225 L 1295 1225 L 1296 1222 L 1299 1220 L 1304 1220 L 1305 1218 L 1319 1217 L 1336 1218 L 1337 1220 L 1342 1220 L 1343 1222 L 1350 1224 L 1353 1227 L 1353 1231 L 1359 1233 L 1360 1240 L 1365 1243 L 1365 1249 L 1367 1251 L 1367 1317 L 1364 1318 L 1364 1325 L 1367 1326 L 1367 1343 L 1364 1344 L 1363 1352 L 1364 1359 L 1367 1360 L 1367 1397 L 1364 1398 L 1364 1405 L 1367 1406 L 1367 1409 L 1364 1410 L 1364 1419 L 1367 1420 L 1367 1424 L 1374 1430 L 1405 1432 L 1406 1435 L 1415 1435 L 1416 1432 L 1423 1432 L 1425 1430 L 1442 1430 L 1452 1425 L 1452 1404 L 1455 1403 L 1455 1396 L 1452 1395 L 1452 1304 L 1455 1303 L 1455 1300 L 1452 1299 L 1452 1236 L 1450 1233 L 1450 1217 L 1448 1216 L 1448 1207 L 1446 1206 L 1446 1201 L 1442 1196 L 1442 1192 L 1432 1177 Z M 782 1165 L 779 1165 L 776 1161 L 773 1161 L 763 1153 L 757 1153 L 756 1151 L 743 1149 L 741 1147 L 727 1147 L 725 1145 L 703 1145 L 701 1147 L 689 1147 L 687 1149 L 673 1151 L 672 1153 L 663 1155 L 662 1157 L 647 1163 L 640 1169 L 637 1169 L 632 1175 L 629 1175 L 626 1179 L 622 1178 L 618 1161 L 610 1154 L 610 1152 L 607 1152 L 606 1155 L 602 1153 L 571 1153 L 569 1155 L 557 1155 L 549 1161 L 549 1189 L 546 1190 L 546 1195 L 549 1196 L 549 1381 L 546 1382 L 546 1387 L 549 1388 L 549 1422 L 553 1428 L 556 1428 L 557 1430 L 570 1430 L 572 1432 L 595 1432 L 596 1435 L 603 1435 L 604 1432 L 608 1432 L 610 1430 L 617 1430 L 618 1433 L 621 1433 L 622 1430 L 636 1427 L 634 1418 L 637 1417 L 638 1408 L 634 1406 L 634 1247 L 636 1246 L 638 1239 L 645 1232 L 651 1232 L 656 1224 L 660 1224 L 661 1222 L 670 1220 L 671 1218 L 688 1217 L 699 1218 L 700 1221 L 708 1220 L 709 1222 L 716 1224 L 725 1234 L 724 1240 L 726 1241 L 726 1245 L 728 1245 L 731 1249 L 731 1255 L 728 1256 L 728 1261 L 731 1262 L 731 1312 L 733 1314 L 733 1325 L 731 1327 L 733 1334 L 733 1340 L 731 1341 L 733 1355 L 731 1357 L 733 1362 L 733 1406 L 731 1422 L 733 1426 L 738 1430 L 753 1430 L 754 1436 L 759 1436 L 761 1432 L 764 1432 L 765 1435 L 775 1435 L 775 1433 L 780 1430 L 802 1430 L 803 1433 L 806 1433 L 809 1428 L 816 1425 L 816 1238 L 814 1236 L 814 1220 L 812 1218 L 812 1211 L 810 1210 L 808 1199 L 802 1190 L 802 1184 L 800 1184 Z M 984 1043 L 982 1047 L 950 1049 L 948 1051 L 931 1053 L 930 1055 L 925 1055 L 924 1057 L 919 1057 L 918 1059 L 912 1059 L 910 1063 L 899 1067 L 896 1071 L 893 1071 L 890 1075 L 885 1077 L 873 1089 L 871 1094 L 867 1097 L 867 1100 L 861 1104 L 861 1110 L 859 1111 L 857 1120 L 855 1121 L 853 1141 L 851 1143 L 851 1159 L 853 1161 L 853 1174 L 855 1175 L 855 1182 L 857 1183 L 857 1191 L 861 1193 L 865 1206 L 869 1207 L 869 1211 L 875 1215 L 875 1218 L 879 1221 L 880 1225 L 884 1225 L 887 1227 L 888 1231 L 894 1232 L 899 1237 L 899 1240 L 877 1253 L 853 1279 L 853 1282 L 845 1295 L 843 1306 L 841 1307 L 841 1317 L 839 1319 L 839 1323 L 836 1324 L 836 1343 L 839 1344 L 839 1349 L 836 1350 L 836 1353 L 838 1354 L 838 1359 L 841 1360 L 845 1376 L 847 1377 L 847 1380 L 849 1381 L 849 1384 L 856 1395 L 856 1400 L 860 1400 L 873 1414 L 878 1416 L 881 1420 L 884 1420 L 887 1424 L 890 1424 L 903 1432 L 912 1434 L 913 1436 L 918 1436 L 919 1438 L 925 1438 L 927 1440 L 934 1440 L 935 1442 L 942 1442 L 944 1444 L 978 1446 L 980 1448 L 1008 1448 L 1009 1446 L 1029 1446 L 1031 1444 L 1042 1444 L 1043 1442 L 1051 1442 L 1053 1440 L 1060 1440 L 1061 1438 L 1067 1438 L 1068 1436 L 1073 1436 L 1075 1434 L 1081 1434 L 1083 1430 L 1088 1430 L 1101 1422 L 1105 1422 L 1107 1418 L 1111 1418 L 1112 1415 L 1132 1396 L 1132 1393 L 1136 1390 L 1140 1379 L 1144 1375 L 1144 1369 L 1146 1368 L 1148 1353 L 1150 1351 L 1150 1317 L 1148 1316 L 1148 1306 L 1146 1305 L 1142 1291 L 1136 1284 L 1136 1281 L 1134 1280 L 1129 1269 L 1125 1269 L 1115 1257 L 1111 1257 L 1100 1247 L 1097 1247 L 1096 1245 L 1084 1240 L 1084 1237 L 1087 1234 L 1092 1232 L 1110 1216 L 1110 1213 L 1120 1202 L 1120 1199 L 1126 1190 L 1126 1185 L 1129 1183 L 1130 1169 L 1132 1168 L 1132 1142 L 1135 1141 L 1135 1138 L 1133 1138 L 1130 1134 L 1130 1127 L 1128 1126 L 1126 1113 L 1124 1112 L 1122 1105 L 1118 1102 L 1116 1095 L 1108 1088 L 1106 1083 L 1101 1081 L 1096 1076 L 1095 1073 L 1091 1073 L 1088 1069 L 1085 1069 L 1083 1065 L 1079 1065 L 1076 1061 L 1069 1061 L 1067 1057 L 1059 1057 L 1058 1055 L 1053 1055 L 1052 1053 L 1033 1051 L 1031 1049 L 993 1047 L 991 1043 Z M 940 1299 L 947 1292 L 951 1292 L 953 1288 L 956 1288 L 969 1280 L 974 1280 L 975 1278 L 1008 1278 L 1009 1280 L 1020 1282 L 1021 1284 L 1032 1288 L 1041 1297 L 1042 1301 L 1049 1305 L 1049 1311 L 1055 1315 L 1055 1320 L 1057 1322 L 1057 1340 L 1055 1341 L 1055 1346 L 1053 1347 L 1051 1354 L 1046 1360 L 1042 1360 L 1042 1364 L 1037 1369 L 1023 1375 L 1022 1377 L 1011 1379 L 1010 1381 L 1002 1381 L 1001 1378 L 996 1378 L 995 1381 L 978 1381 L 974 1375 L 970 1375 L 968 1377 L 959 1375 L 952 1369 L 949 1369 L 944 1364 L 943 1360 L 936 1356 L 936 1353 L 932 1350 L 932 1345 L 930 1344 L 928 1324 L 930 1322 L 930 1317 Z M 959 1118 L 962 1118 L 963 1116 L 971 1117 L 973 1112 L 998 1110 L 999 1112 L 1010 1112 L 1011 1114 L 1016 1114 L 1018 1118 L 1024 1118 L 1026 1122 L 1030 1122 L 1039 1131 L 1039 1134 L 1045 1141 L 1043 1149 L 1049 1154 L 1049 1170 L 1047 1171 L 1047 1178 L 1045 1179 L 1043 1186 L 1030 1201 L 1026 1201 L 1024 1205 L 1021 1205 L 1016 1209 L 995 1213 L 994 1211 L 981 1211 L 979 1209 L 973 1209 L 972 1207 L 961 1203 L 956 1197 L 952 1196 L 952 1194 L 944 1186 L 944 1183 L 940 1180 L 940 1175 L 938 1174 L 938 1164 L 936 1162 L 936 1154 L 938 1152 L 938 1144 L 942 1138 L 942 1135 L 946 1132 L 948 1127 Z M 1262 831 L 1265 849 L 1271 850 L 1270 857 L 1273 858 L 1275 863 L 1273 867 L 1273 878 L 1278 880 L 1281 884 L 1284 884 L 1286 888 L 1290 888 L 1293 892 L 1300 894 L 1309 902 L 1316 904 L 1319 908 L 1322 908 L 1325 912 L 1331 914 L 1332 919 L 1335 919 L 1338 923 L 1336 926 L 1337 936 L 1335 937 L 1335 945 L 1333 947 L 1333 973 L 1335 975 L 1334 989 L 1338 995 L 1341 996 L 1345 1006 L 1351 1011 L 1351 1014 L 1363 1026 L 1366 1026 L 1369 1030 L 1375 1034 L 1378 1034 L 1379 1036 L 1382 1036 L 1383 1038 L 1394 1040 L 1395 1042 L 1402 1042 L 1403 1044 L 1407 1044 L 1408 1047 L 1413 1047 L 1414 1044 L 1438 1044 L 1439 1042 L 1444 1042 L 1445 1040 L 1452 1040 L 1453 1038 L 1464 1034 L 1473 1026 L 1476 1026 L 1490 1012 L 1490 1009 L 1498 1000 L 1498 997 L 1502 992 L 1502 987 L 1504 986 L 1506 966 L 1508 964 L 1508 950 L 1506 949 L 1506 939 L 1504 938 L 1502 925 L 1500 924 L 1494 909 L 1490 906 L 1485 896 L 1481 895 L 1476 889 L 1473 889 L 1468 883 L 1461 881 L 1457 877 L 1453 877 L 1439 871 L 1426 871 L 1424 869 L 1419 871 L 1394 870 L 1392 875 L 1384 875 L 1382 879 L 1372 882 L 1366 889 L 1359 891 L 1350 883 L 1347 883 L 1340 877 L 1333 875 L 1330 871 L 1327 871 L 1320 865 L 1317 865 L 1308 857 L 1301 855 L 1292 847 L 1285 845 L 1279 839 L 1275 839 L 1272 835 Z M 786 831 L 781 831 L 776 837 L 767 838 L 766 843 L 755 847 L 746 855 L 740 855 L 736 861 L 733 861 L 730 865 L 723 867 L 700 883 L 696 883 L 694 887 L 691 887 L 687 891 L 685 891 L 684 888 L 677 887 L 676 883 L 671 883 L 658 875 L 645 873 L 644 871 L 630 871 L 628 869 L 623 869 L 621 871 L 606 871 L 604 873 L 593 875 L 592 877 L 587 877 L 583 880 L 578 879 L 577 884 L 574 887 L 571 887 L 557 901 L 555 906 L 551 909 L 549 916 L 545 918 L 545 924 L 543 925 L 541 938 L 539 940 L 539 955 L 536 956 L 536 959 L 539 960 L 539 966 L 536 967 L 536 971 L 539 972 L 539 976 L 541 977 L 541 983 L 545 989 L 544 998 L 548 999 L 548 1004 L 552 1004 L 553 1008 L 557 1011 L 557 1014 L 569 1026 L 572 1026 L 575 1030 L 578 1030 L 582 1036 L 588 1036 L 593 1040 L 606 1042 L 608 1047 L 613 1047 L 614 1044 L 634 1044 L 635 1047 L 638 1047 L 638 1045 L 642 1044 L 643 1042 L 658 1040 L 659 1038 L 674 1032 L 696 1012 L 696 1009 L 700 1006 L 700 1003 L 704 999 L 706 991 L 708 990 L 708 985 L 710 984 L 710 979 L 712 977 L 712 966 L 714 964 L 712 947 L 715 946 L 715 943 L 713 943 L 710 938 L 706 921 L 709 919 L 714 919 L 714 915 L 719 914 L 725 908 L 731 909 L 731 905 L 737 900 L 744 898 L 747 894 L 750 894 L 753 890 L 760 888 L 763 884 L 766 884 L 769 880 L 774 878 L 774 860 L 776 859 L 776 851 L 778 850 L 782 839 L 786 836 Z M 1621 647 L 1613 647 L 1611 642 L 1604 643 L 1603 641 L 1589 641 L 1588 639 L 1569 639 L 1568 641 L 1558 641 L 1553 639 L 1544 647 L 1536 649 L 1532 653 L 1529 653 L 1526 657 L 1522 657 L 1521 660 L 1509 671 L 1507 676 L 1503 679 L 1503 682 L 1495 695 L 1493 706 L 1490 709 L 1480 709 L 1476 707 L 1475 704 L 1468 704 L 1467 707 L 1463 707 L 1461 705 L 1421 703 L 1419 701 L 1402 701 L 1400 699 L 1382 699 L 1380 697 L 1364 697 L 1363 695 L 1347 695 L 1345 693 L 1337 693 L 1335 695 L 1335 720 L 1332 721 L 1332 723 L 1335 724 L 1335 732 L 1337 734 L 1374 734 L 1375 736 L 1401 736 L 1404 738 L 1435 738 L 1437 740 L 1451 740 L 1452 743 L 1455 743 L 1456 740 L 1488 742 L 1489 745 L 1487 750 L 1490 751 L 1493 756 L 1492 763 L 1495 764 L 1497 771 L 1503 777 L 1503 780 L 1508 787 L 1509 796 L 1505 800 L 1505 804 L 1499 811 L 1499 814 L 1495 817 L 1495 820 L 1489 827 L 1489 830 L 1485 833 L 1485 836 L 1479 843 L 1477 850 L 1469 859 L 1469 866 L 1472 869 L 1484 872 L 1489 878 L 1492 878 L 1494 882 L 1499 882 L 1504 874 L 1504 871 L 1508 868 L 1510 861 L 1516 854 L 1516 851 L 1520 848 L 1522 841 L 1526 838 L 1528 831 L 1532 828 L 1532 825 L 1538 818 L 1539 814 L 1562 818 L 1566 821 L 1566 823 L 1573 823 L 1574 820 L 1596 820 L 1597 818 L 1617 814 L 1623 808 L 1626 808 L 1629 804 L 1632 804 L 1635 800 L 1640 798 L 1646 792 L 1648 787 L 1654 782 L 1654 779 L 1660 772 L 1662 763 L 1664 762 L 1664 757 L 1666 756 L 1666 751 L 1668 749 L 1669 726 L 1666 703 L 1664 702 L 1664 697 L 1660 691 L 1660 686 L 1656 684 L 1656 681 L 1652 678 L 1652 675 L 1636 660 L 1635 657 L 1631 657 L 1628 653 L 1622 651 Z M 374 730 L 374 733 L 377 734 L 376 751 L 378 751 L 381 755 L 381 760 L 385 765 L 385 773 L 389 775 L 389 779 L 393 781 L 393 784 L 399 789 L 405 798 L 419 808 L 422 808 L 424 813 L 434 814 L 435 816 L 446 818 L 447 820 L 451 821 L 451 824 L 455 823 L 456 820 L 481 820 L 483 818 L 496 816 L 497 814 L 508 816 L 511 819 L 515 830 L 521 837 L 523 846 L 527 847 L 527 850 L 531 855 L 531 859 L 535 861 L 535 867 L 541 871 L 541 874 L 545 878 L 545 882 L 550 882 L 565 870 L 568 870 L 569 868 L 572 868 L 573 866 L 576 866 L 577 864 L 572 851 L 568 848 L 568 845 L 564 842 L 562 835 L 558 832 L 556 825 L 548 816 L 548 813 L 540 802 L 540 798 L 537 796 L 536 791 L 540 783 L 544 780 L 544 777 L 552 764 L 554 754 L 559 751 L 559 748 L 557 748 L 556 745 L 559 742 L 579 742 L 581 740 L 603 740 L 604 743 L 607 743 L 608 740 L 612 740 L 614 738 L 643 738 L 645 736 L 708 734 L 710 726 L 708 705 L 710 701 L 708 699 L 709 693 L 705 692 L 699 693 L 698 695 L 665 697 L 663 699 L 645 699 L 644 701 L 624 701 L 621 703 L 605 703 L 603 705 L 584 705 L 582 703 L 578 703 L 576 707 L 559 709 L 558 706 L 554 704 L 552 695 L 550 694 L 546 683 L 538 674 L 538 671 L 518 653 L 515 653 L 502 645 L 497 645 L 494 640 L 476 641 L 474 639 L 459 639 L 457 641 L 447 641 L 446 643 L 433 645 L 432 647 L 421 651 L 412 659 L 409 659 L 399 669 L 397 674 L 393 677 L 393 680 L 389 683 L 383 700 L 379 704 L 377 729 Z M 1015 626 L 1014 631 L 1008 631 L 1007 628 L 1004 628 L 1003 630 L 1000 630 L 999 633 L 983 637 L 982 639 L 978 639 L 974 643 L 971 643 L 960 653 L 957 653 L 951 659 L 951 662 L 943 669 L 943 672 L 939 673 L 939 678 L 935 680 L 935 686 L 933 687 L 933 692 L 931 693 L 931 698 L 929 699 L 929 708 L 927 709 L 927 739 L 929 741 L 927 751 L 931 753 L 931 763 L 934 767 L 939 769 L 939 772 L 945 779 L 945 782 L 971 806 L 978 808 L 982 812 L 988 812 L 989 814 L 1003 816 L 1005 818 L 1043 818 L 1045 816 L 1053 816 L 1059 812 L 1068 810 L 1075 804 L 1078 804 L 1081 800 L 1087 799 L 1088 795 L 1102 782 L 1102 779 L 1106 776 L 1108 769 L 1114 766 L 1114 755 L 1119 752 L 1118 737 L 1120 735 L 1120 713 L 1118 712 L 1118 701 L 1116 700 L 1116 686 L 1112 684 L 1112 680 L 1106 676 L 1106 673 L 1102 670 L 1102 667 L 1092 658 L 1091 655 L 1086 652 L 1085 648 L 1079 647 L 1064 637 L 1053 635 L 1049 632 L 1049 630 L 1037 628 L 1036 631 L 1031 631 L 1029 629 L 1022 629 L 1021 626 Z M 1003 664 L 1008 664 L 1010 662 L 1038 662 L 1039 664 L 1044 664 L 1045 666 L 1054 668 L 1057 671 L 1057 675 L 1066 676 L 1081 695 L 1081 703 L 1084 704 L 1085 708 L 1087 709 L 1087 737 L 1085 739 L 1085 744 L 1083 745 L 1083 750 L 1078 756 L 1076 756 L 1075 762 L 1070 767 L 1065 768 L 1065 772 L 1060 777 L 1057 777 L 1048 783 L 1044 783 L 1042 785 L 1032 785 L 1030 783 L 1026 783 L 1024 787 L 1011 787 L 1010 785 L 1003 785 L 1002 783 L 987 777 L 984 773 L 979 771 L 964 750 L 962 736 L 960 735 L 960 709 L 962 708 L 962 703 L 964 702 L 964 699 L 968 697 L 968 691 L 975 688 L 976 681 L 983 674 L 987 674 L 989 670 L 1002 670 Z M 992 450 L 991 453 L 981 455 L 975 463 L 975 472 L 973 473 L 973 478 L 971 480 L 969 500 L 967 502 L 966 510 L 962 512 L 962 518 L 958 521 L 945 525 L 944 527 L 939 527 L 938 529 L 931 527 L 926 535 L 921 535 L 917 533 L 904 519 L 899 517 L 898 512 L 893 511 L 874 493 L 863 493 L 854 501 L 848 502 L 844 509 L 839 511 L 826 525 L 821 527 L 806 543 L 803 543 L 797 549 L 797 554 L 801 557 L 801 563 L 805 565 L 808 575 L 811 576 L 817 585 L 819 592 L 821 593 L 822 602 L 827 603 L 829 614 L 823 621 L 815 640 L 811 644 L 811 650 L 808 653 L 778 655 L 776 657 L 762 657 L 759 655 L 754 655 L 753 658 L 749 659 L 748 661 L 736 660 L 735 666 L 733 667 L 733 686 L 731 688 L 731 750 L 735 756 L 745 758 L 746 760 L 761 760 L 772 764 L 784 764 L 785 766 L 800 768 L 805 773 L 805 779 L 809 783 L 809 788 L 811 789 L 813 798 L 815 799 L 817 807 L 819 808 L 819 822 L 811 831 L 811 834 L 805 841 L 805 844 L 801 847 L 801 850 L 797 853 L 797 856 L 793 858 L 793 862 L 789 867 L 789 873 L 799 883 L 800 887 L 807 891 L 807 895 L 812 896 L 831 915 L 831 919 L 836 920 L 843 928 L 846 928 L 848 932 L 855 934 L 856 937 L 859 937 L 861 932 L 864 932 L 871 926 L 875 926 L 879 920 L 882 920 L 891 912 L 898 910 L 901 906 L 907 902 L 910 902 L 911 907 L 918 906 L 920 910 L 926 910 L 927 912 L 942 918 L 946 922 L 952 922 L 954 926 L 959 927 L 961 931 L 960 943 L 963 944 L 965 960 L 967 962 L 964 969 L 966 969 L 969 973 L 969 981 L 971 983 L 971 985 L 968 986 L 969 992 L 974 992 L 975 994 L 982 996 L 1063 996 L 1074 992 L 1076 979 L 1082 974 L 1080 969 L 1080 957 L 1082 956 L 1082 947 L 1084 945 L 1086 929 L 1091 924 L 1099 924 L 1101 920 L 1122 912 L 1127 908 L 1131 908 L 1135 904 L 1141 903 L 1151 910 L 1154 910 L 1157 914 L 1160 914 L 1163 918 L 1170 920 L 1179 928 L 1186 930 L 1187 935 L 1199 934 L 1207 926 L 1209 926 L 1214 919 L 1257 876 L 1260 876 L 1261 862 L 1256 861 L 1240 835 L 1236 832 L 1234 825 L 1226 816 L 1226 812 L 1230 806 L 1230 803 L 1232 802 L 1232 798 L 1236 792 L 1238 783 L 1240 782 L 1242 771 L 1245 768 L 1250 768 L 1251 766 L 1262 766 L 1263 764 L 1273 764 L 1275 762 L 1283 762 L 1285 760 L 1293 760 L 1295 758 L 1304 758 L 1305 756 L 1310 756 L 1314 752 L 1314 675 L 1312 673 L 1310 663 L 1307 663 L 1306 661 L 1297 661 L 1293 658 L 1293 656 L 1286 656 L 1286 658 L 1283 659 L 1282 657 L 1269 657 L 1267 655 L 1237 653 L 1234 650 L 1232 641 L 1230 640 L 1222 621 L 1218 618 L 1216 607 L 1224 596 L 1226 589 L 1230 586 L 1232 579 L 1236 576 L 1240 565 L 1246 559 L 1247 551 L 1234 537 L 1231 537 L 1226 532 L 1226 529 L 1223 529 L 1214 519 L 1209 517 L 1200 507 L 1195 505 L 1182 493 L 1175 491 L 1174 493 L 1163 497 L 1163 500 L 1156 507 L 1151 509 L 1130 529 L 1124 533 L 1117 533 L 1108 527 L 1103 527 L 1102 525 L 1095 523 L 1091 520 L 1091 518 L 1088 518 L 1085 513 L 1081 513 L 1078 509 L 1076 491 L 1074 490 L 1074 482 L 1072 480 L 1072 472 L 1070 470 L 1070 463 L 1068 462 L 1068 457 L 1061 453 L 998 453 L 997 450 Z M 1020 602 L 1023 604 L 1031 604 L 1032 607 L 1039 607 L 1040 604 L 1044 604 L 1045 606 L 1062 608 L 1063 610 L 1071 612 L 1074 617 L 1077 617 L 1078 619 L 1084 618 L 1100 628 L 1109 638 L 1113 639 L 1114 645 L 1118 646 L 1123 651 L 1123 655 L 1129 659 L 1129 662 L 1133 665 L 1133 668 L 1137 673 L 1136 681 L 1141 683 L 1139 694 L 1142 697 L 1142 701 L 1147 704 L 1147 741 L 1145 743 L 1145 750 L 1143 752 L 1141 764 L 1139 765 L 1129 788 L 1125 790 L 1125 794 L 1100 819 L 1096 817 L 1092 818 L 1089 822 L 1089 826 L 1082 831 L 1072 833 L 1068 837 L 1065 837 L 1064 833 L 1062 833 L 1054 838 L 1054 840 L 1050 843 L 1040 843 L 1038 845 L 1028 845 L 1027 842 L 1022 842 L 1021 845 L 997 843 L 995 837 L 990 839 L 977 837 L 976 835 L 973 835 L 972 833 L 969 833 L 968 831 L 965 831 L 964 829 L 961 829 L 955 825 L 954 821 L 949 821 L 942 813 L 939 813 L 932 806 L 931 800 L 927 799 L 918 788 L 918 785 L 914 781 L 908 769 L 908 765 L 906 764 L 904 751 L 902 750 L 902 742 L 900 740 L 900 705 L 906 702 L 906 700 L 902 698 L 904 689 L 907 687 L 908 677 L 910 676 L 914 665 L 918 662 L 918 659 L 922 656 L 922 653 L 928 648 L 928 645 L 935 638 L 939 637 L 939 635 L 949 626 L 952 626 L 955 622 L 961 622 L 963 618 L 971 617 L 974 612 L 978 612 L 984 608 L 990 608 L 991 606 L 1000 606 L 1002 608 L 1009 607 L 1010 604 L 1019 604 Z M 1376 375 L 1375 377 L 1370 378 L 1370 380 L 1367 381 L 1360 389 L 1357 389 L 1353 393 L 1353 396 L 1347 400 L 1347 404 L 1343 407 L 1341 414 L 1337 419 L 1337 424 L 1335 425 L 1335 432 L 1333 433 L 1332 473 L 1334 474 L 1334 479 L 1336 479 L 1339 483 L 1339 487 L 1336 488 L 1335 492 L 1331 493 L 1328 497 L 1319 498 L 1318 503 L 1312 507 L 1309 507 L 1306 511 L 1298 513 L 1297 516 L 1293 517 L 1290 521 L 1287 521 L 1280 527 L 1277 527 L 1274 531 L 1271 531 L 1264 537 L 1261 537 L 1261 544 L 1265 549 L 1265 564 L 1257 577 L 1257 582 L 1260 582 L 1263 578 L 1266 578 L 1271 574 L 1277 576 L 1279 568 L 1282 568 L 1285 564 L 1288 564 L 1295 558 L 1304 557 L 1307 550 L 1310 550 L 1317 544 L 1323 544 L 1329 536 L 1337 534 L 1338 531 L 1345 526 L 1350 526 L 1352 521 L 1356 520 L 1359 516 L 1364 516 L 1373 524 L 1376 524 L 1385 530 L 1389 530 L 1391 534 L 1396 532 L 1402 538 L 1409 535 L 1410 539 L 1414 540 L 1416 536 L 1427 536 L 1429 534 L 1433 534 L 1434 537 L 1437 537 L 1441 541 L 1443 550 L 1445 551 L 1445 554 L 1447 555 L 1447 558 L 1455 571 L 1455 576 L 1459 581 L 1459 587 L 1462 588 L 1463 592 L 1465 593 L 1468 608 L 1473 611 L 1473 617 L 1477 619 L 1477 622 L 1483 631 L 1483 637 L 1487 639 L 1487 644 L 1489 645 L 1488 652 L 1492 652 L 1493 656 L 1501 655 L 1501 651 L 1507 646 L 1522 640 L 1522 634 L 1518 628 L 1518 625 L 1516 624 L 1516 621 L 1514 620 L 1514 617 L 1512 616 L 1512 613 L 1510 612 L 1510 609 L 1508 608 L 1508 605 L 1506 604 L 1506 601 L 1504 600 L 1504 597 L 1502 596 L 1502 593 L 1500 592 L 1500 589 L 1498 588 L 1498 585 L 1496 584 L 1496 581 L 1494 580 L 1494 577 L 1492 576 L 1492 573 L 1490 572 L 1490 567 L 1488 566 L 1488 563 L 1486 562 L 1486 559 L 1484 558 L 1484 555 L 1482 554 L 1482 551 L 1474 538 L 1474 534 L 1470 529 L 1470 525 L 1468 524 L 1468 521 L 1473 516 L 1478 514 L 1490 502 L 1490 499 L 1496 495 L 1496 489 L 1498 488 L 1500 481 L 1502 480 L 1502 475 L 1504 474 L 1504 465 L 1506 464 L 1506 437 L 1504 435 L 1502 421 L 1500 420 L 1500 414 L 1490 402 L 1487 394 L 1483 393 L 1474 383 L 1471 383 L 1468 379 L 1465 379 L 1461 373 L 1453 373 L 1452 371 L 1441 369 L 1440 367 L 1414 365 L 1411 367 L 1391 369 L 1390 371 Z M 653 369 L 647 369 L 646 367 L 634 367 L 632 365 L 616 365 L 614 367 L 605 367 L 603 369 L 594 368 L 594 370 L 590 373 L 579 377 L 576 381 L 573 381 L 570 385 L 560 390 L 557 398 L 553 401 L 549 407 L 549 410 L 547 411 L 547 414 L 545 415 L 545 418 L 543 419 L 543 424 L 541 425 L 541 430 L 539 432 L 539 473 L 543 477 L 543 482 L 545 483 L 547 492 L 551 495 L 551 498 L 555 501 L 557 506 L 570 518 L 577 521 L 577 524 L 575 525 L 575 528 L 571 530 L 571 536 L 569 537 L 569 540 L 567 541 L 567 544 L 565 545 L 565 548 L 563 549 L 563 552 L 561 553 L 561 556 L 553 569 L 551 578 L 549 579 L 549 582 L 547 583 L 547 586 L 545 587 L 545 590 L 543 591 L 543 594 L 541 595 L 541 598 L 539 599 L 539 602 L 537 603 L 537 606 L 535 607 L 525 630 L 521 634 L 521 640 L 530 642 L 531 647 L 538 646 L 543 651 L 543 655 L 555 656 L 554 647 L 558 645 L 558 639 L 564 631 L 566 623 L 570 621 L 570 615 L 572 614 L 572 611 L 576 605 L 576 601 L 580 599 L 580 593 L 584 591 L 584 585 L 588 580 L 590 571 L 592 570 L 592 567 L 594 566 L 594 563 L 596 562 L 606 539 L 615 537 L 616 535 L 623 536 L 625 540 L 631 539 L 632 536 L 648 534 L 649 532 L 651 532 L 652 535 L 656 535 L 657 530 L 672 524 L 675 520 L 678 520 L 681 516 L 684 516 L 688 523 L 696 524 L 703 530 L 706 530 L 707 534 L 716 536 L 720 542 L 728 544 L 747 558 L 750 558 L 753 562 L 756 562 L 759 566 L 762 566 L 766 572 L 772 572 L 775 576 L 778 576 L 785 582 L 790 582 L 790 579 L 782 570 L 783 560 L 779 557 L 780 547 L 782 546 L 784 539 L 777 534 L 777 531 L 771 531 L 768 527 L 761 525 L 752 517 L 749 517 L 742 511 L 739 511 L 730 503 L 727 503 L 714 493 L 711 493 L 708 489 L 704 488 L 708 477 L 708 470 L 710 468 L 710 452 L 713 448 L 715 448 L 715 446 L 710 445 L 710 431 L 708 430 L 704 413 L 698 406 L 698 403 L 694 400 L 694 397 L 688 392 L 687 388 L 683 384 L 677 383 L 674 379 L 671 379 L 667 375 L 659 373 Z"/>
</svg>
