<svg width="36" height="36" viewBox="0 0 36 36" fill="none" xmlns="http://www.w3.org/2000/svg">
<path d="M17.9886 20.7494C19.7599 20.7494 21.1959 19.3128 21.1959 17.5407C21.1959 15.7686 19.7599 14.332 17.9886 14.332C16.2172 14.332 14.7812 15.7686 14.7812 17.5407C14.7812 19.3128 16.2172 20.7494 17.9886 20.7494Z" fill="#89BCD9"/>
<path d="M35.9844 17.5412C35.9844 15.0212 33.0274 12.8299 28.4276 11.5151C29.5854 6.86642 29.1786 3.20381 26.9883 1.95163C24.7979 0.683808 21.4342 2.17076 17.9922 5.48903C14.5502 2.15511 11.1864 0.683808 8.99609 1.95163C7.18123 3.00033 6.50847 5.6612 7.11864 9.44903C7.22816 10.1221 7.38462 10.8108 7.55671 11.5308C2.95697 12.8455 0 15.0369 0 17.5569C0 20.0769 2.95697 22.2525 7.55671 23.5829C7.38462 24.2873 7.22816 24.9916 7.11864 25.6647C6.50847 29.4525 7.18123 32.1134 8.99609 33.1621C9.52803 33.4751 10.1382 33.6316 10.811 33.6316C12.4068 33.6316 14.3312 32.7551 16.4276 31.049C16.9439 30.6264 17.4759 30.1412 17.9922 29.6403C18.5085 30.1412 19.0404 30.6264 19.5567 31.049C21.6532 32.7551 23.5776 33.6316 25.1734 33.6316C25.8462 33.6316 26.4563 33.4751 26.9883 33.1621C28.8031 32.1134 29.4759 29.4525 28.8814 25.6647C28.7718 24.9916 28.6154 24.3029 28.4433 23.5829C33.043 22.2682 36 20.0769 36 17.5569L35.9844 17.5412ZM26.206 3.29772C27.6141 4.11163 27.927 7.08555 26.91 11.1238C25.4394 10.7795 23.8279 10.529 22.1226 10.3725C21.1369 8.97946 20.1043 7.71163 19.0874 6.60033C21.4655 4.29946 23.6714 3.04729 25.189 3.04729C25.5802 3.04729 25.9244 3.12555 26.2216 3.29772H26.206ZM23.0143 20.4369C22.4511 21.3916 21.8722 22.3308 21.2777 23.2073C20.2295 23.2855 19.1343 23.3325 18.0078 23.3325C16.8814 23.3325 15.7862 23.2855 14.7379 23.2073C14.1434 22.3308 13.5489 21.3916 13.0013 20.4369C12.4381 19.4664 11.9374 18.5116 11.4681 17.5412C11.9374 16.5708 12.4381 15.616 13.0013 14.6455C13.5645 13.6595 14.1591 12.736 14.7379 11.8751C15.7862 11.7969 16.8814 11.7499 18.0078 11.7499C19.1343 11.7499 20.2295 11.7969 21.2777 11.8751C21.8722 12.736 22.4511 13.6595 23.0143 14.6455C23.5619 15.6003 24.0782 16.5708 24.5476 17.5412C24.0939 18.496 23.5932 19.4508 23.0143 20.4369ZM25.3611 19.3725C25.7992 20.4212 26.1747 21.4386 26.4876 22.4403C25.4863 22.6595 24.4068 22.8629 23.2647 23.0038C23.6402 22.4247 24 21.8299 24.3598 21.2195C24.7197 20.609 25.0482 19.9829 25.3611 19.3725ZM17.9922 27.3551C17.2881 26.5882 16.5841 25.7429 15.8957 24.8351C16.5841 24.8664 17.2725 24.8821 17.9922 24.8821C18.7119 24.8821 19.4003 24.8664 20.0887 24.8351C19.4003 25.7429 18.6962 26.5725 17.9922 27.3551ZM12.7197 23.0038C11.5776 22.8629 10.498 22.6751 9.49674 22.4403C9.80965 21.4386 10.1851 20.4212 10.6232 19.3725C10.9361 19.9829 11.2647 20.609 11.6245 21.2195C11.9844 21.8299 12.3442 22.4247 12.7197 23.0038ZM10.6232 15.6942C10.1851 14.6455 9.80965 13.6282 9.49674 12.6264C10.498 12.4073 11.5776 12.2038 12.7197 12.0629C12.3442 12.6421 11.9844 13.2369 11.6245 13.8473C11.2647 14.4577 10.9361 15.0682 10.6232 15.6942ZM17.9922 7.71163C18.6806 8.46294 19.3846 9.30816 20.0887 10.2316C19.4003 10.2003 18.7119 10.1847 17.9922 10.1847C17.2725 10.1847 16.5841 10.2003 15.8957 10.2316C16.5997 9.30816 17.2881 8.46294 17.9922 7.71163ZM24.3598 13.8629C24 13.2525 23.6402 12.6577 23.2647 12.0786C24.4068 12.2195 25.4863 12.4073 26.4876 12.6421C26.1904 13.6282 25.8149 14.6455 25.3611 15.7099C25.0482 15.0995 24.704 14.4734 24.3598 13.8629ZM8.65189 9.19859C8.16688 6.14642 8.57366 4.00207 9.77836 3.31337C10.0756 3.1412 10.4198 3.06294 10.811 3.06294C12.3286 3.06294 14.5346 4.31511 16.9126 6.61598C15.8801 7.72729 14.8631 8.99511 13.8774 10.3882C12.1721 10.5447 10.5606 10.7951 9.08996 11.1395C8.91786 10.4821 8.77705 9.82468 8.68318 9.21424L8.65189 9.19859ZM1.56454 17.5412C1.56454 15.9134 3.97392 14.1603 7.97914 13.0177C8.43286 14.4734 9.02738 15.9916 9.73142 17.5412C9.02738 19.0751 8.43286 20.5934 7.97914 22.0647C3.98957 20.9221 1.56454 19.1847 1.56454 17.5412ZM15.442 29.7969C13.0482 31.7377 10.9831 32.4577 9.77836 31.769C8.57366 31.0803 8.16688 28.9203 8.65189 25.8838C8.74576 25.2577 8.90222 24.616 9.05867 23.9586C10.5293 24.3029 12.1408 24.5534 13.8462 24.7099C14.8318 26.0873 15.8488 27.3708 16.8814 28.4977C16.3963 28.9673 15.9113 29.4212 15.4263 29.8125L15.442 29.7969ZM27.3325 25.8838C27.8175 28.936 27.4107 31.0803 26.206 31.769C25.0013 32.4577 22.9361 31.7377 20.5424 29.7969C20.0574 29.4056 19.5724 28.9516 19.0874 28.4821C20.1356 27.3551 21.1525 26.0873 22.1226 24.7099C23.8279 24.5534 25.4394 24.3029 26.91 23.9586C27.0821 24.616 27.2229 25.2734 27.3168 25.8838H27.3325ZM28.0052 22.049C27.5515 20.5934 26.957 19.0751 26.2529 17.5255C26.9726 15.9603 27.5515 14.4421 28.0052 13.0021C32.0104 14.1447 34.4198 15.8821 34.4198 17.5255C34.4198 19.169 32.0104 20.9064 28.0052 22.049Z" fill="#89BCD9"/>
</svg>
