<svg width="64" height="59" viewBox="0 0 64 59" fill="none" xmlns="http://www.w3.org/2000/svg">
<path d="M63.5636 37.1733C66.0896 51.3943 51.4961 61.6858 34.1454 58.3062C16.7948 54.9266 -2.21264 40.5808 0.209735 24.8329C2.42857 10.4081 16.7782 2.28906 27.5979 4.39657C44.9485 7.77621 60.4015 19.3703 63.5636 37.1733Z" fill="#323F48" fill-opacity="0.5"/>
<path d="M14.0269 17.0423C14.0269 25.2266 23.3646 35.1965 30.7443 41C37.2204 35.6429 46.6333 27.0866 47.3111 17.0423C47.8229 9.4564 41.3621 -0.219418 30.7443 0.00379218C18.018 0.271332 14.0269 10.2715 14.0269 17.0423Z" fill="#F8F5EC"/>
<path d="M34.5588 15.1473C34.4911 17.3487 32.7356 19.0823 30.6378 19.0194C28.54 18.9565 26.8942 17.1208 26.962 14.9194C27.0297 12.718 28.7853 10.9843 30.8831 11.0473C32.9809 11.1102 34.6266 12.9458 34.5588 15.1473Z" fill="#89BCD9"/>
<path d="M36.9647 43C43.7822 46.6522 38.1321 50 30.6016 50C23.0711 50 17.421 46.3478 23.784 43" stroke="#F8F5EC" stroke-width="2" stroke-linecap="round"/>
</svg>
