<svg width="24" height="24" viewBox="0 0 24 24" fill="none" xmlns="http://www.w3.org/2000/svg">
<mask id="mask0_0_22" style="mask-type:alpha" maskUnits="userSpaceOnUse" x="0" y="0" width="24" height="24">
<rect width="24" height="24" fill="#797EF3"/>
</mask>
<g mask="url(#mask0_0_22)">
<path d="M10.1612 20.1084C7.81189 19.2949 5.65006 17.1996 4.29228 14.6188C2.93314 12.0353 2.47651 9.15303 3.27591 6.84386C3.9134 5.0027 6.03905 3.81368 8.98269 3.43118C11.8667 3.05644 15.1341 3.52743 17.4136 4.58268C19.6791 5.63153 21.0648 7.16119 21.7103 8.96887C22.3622 10.7946 22.3011 13.0236 21.4372 15.5192C20.6159 17.8913 19.0171 19.4302 17.0466 20.1926C15.0568 20.9625 12.625 20.9613 10.1612 20.1084Z" fill="#89BCD9" stroke="#89BCD9" stroke-width="2"/>
<path d="M10.825 13.225L8.675 11.075C8.49167 10.8917 8.25833 10.8 7.975 10.8C7.69167 10.8 7.45833 10.8917 7.275 11.075C7.09167 11.2583 7 11.4917 7 11.775C7 12.0583 7.09167 12.2917 7.275 12.475L10.125 15.325C10.325 15.525 10.5583 15.625 10.825 15.625C11.0917 15.625 11.325 15.525 11.525 15.325L17.175 9.675C17.3583 9.49167 17.45 9.25833 17.45 8.975C17.45 8.69167 17.3583 8.45833 17.175 8.275C16.9917 8.09167 16.7583 8 16.475 8C16.1917 8 15.9583 8.09167 15.775 8.275L10.825 13.225Z" fill="#F8F5EC"/>
</g>
</svg>
