<svg xmlns="http://www.w3.org/2000/svg" width="66" height="73" viewBox="0 0 66 73" fill="none">
<path d="M18.6406 26.8594C18.1354 26.8438 17.6979 26.7266 17.3281 26.5078C16.9583 26.2891 16.651 26 16.4062 25.6406C16.1719 25.2969 15.9948 24.9115 15.875 24.4844C15.7552 24.0625 15.6953 23.6432 15.6953 23.2266V21.9062C15.6953 21.1562 15.5156 20.612 15.1562 20.2734C14.8021 19.9349 14.2578 19.763 13.5234 19.7578V18.625C14.2578 18.625 14.8021 18.4583 15.1562 18.125C15.5156 17.7865 15.6953 17.2396 15.6953 16.4844V15.1562C15.6953 14.7344 15.75 14.3047 15.8594 13.8672C15.974 13.4245 16.1536 13.0286 16.3984 12.6797C16.6276 12.3464 16.9271 12.0755 17.2969 11.8672C17.6667 11.6536 18.1146 11.5391 18.6406 11.5234L18.8047 12.4219C18.4297 12.4323 18.1302 12.5208 17.9062 12.6875C17.6875 12.8542 17.5234 13.0651 17.4141 13.3203C17.2995 13.5807 17.2266 13.8724 17.1953 14.1953C17.1641 14.5182 17.1484 14.8385 17.1484 15.1562V16.4844C17.1484 17.1094 17.0026 17.6589 16.7109 18.1328C16.4245 18.6016 15.9792 18.9583 15.375 19.2031C15.9792 19.4427 16.4245 19.7995 16.7109 20.2734C16.9974 20.7422 17.1432 21.2865 17.1484 21.9062V23.2266C17.1484 23.5495 17.1745 23.8698 17.2266 24.1875C17.2786 24.5104 17.3698 24.7995 17.5 25.0547C17.625 25.3151 17.7917 25.5286 18 25.6953C18.2135 25.862 18.4818 25.9505 18.8047 25.9609L18.6406 26.8594Z" fill="#F8F5EC" />
<path d="M47.5234 25.9609C47.8411 25.9505 48.1068 25.862 48.3203 25.6953C48.5339 25.5286 48.7057 25.3151 48.8359 25.0547C48.9609 24.7995 49.0495 24.5104 49.1016 24.1875C49.1589 23.8698 49.1875 23.5495 49.1875 23.2266V21.9062C49.1875 21.4948 49.2474 21.1146 49.3672 20.7656C49.4922 20.4167 49.6823 20.1146 49.9375 19.8594C50.0729 19.724 50.224 19.6016 50.3906 19.4922C50.5625 19.3828 50.75 19.2865 50.9531 19.2031C50.7448 19.1198 50.5521 19.0208 50.375 18.9062C50.2031 18.7917 50.0521 18.6641 49.9219 18.5234C49.6719 18.263 49.487 17.9609 49.3672 17.6172C49.2474 17.2682 49.1875 16.8906 49.1875 16.4844V15.1562C49.1875 14.8385 49.1693 14.5182 49.1328 14.1953C49.1016 13.8724 49.0312 13.5807 48.9219 13.3203C48.8073 13.0651 48.6406 12.8542 48.4219 12.6875C48.2031 12.5208 47.9062 12.4323 47.5312 12.4219L47.6875 11.5234C48.1927 11.5391 48.625 11.6458 48.9844 11.8438C49.349 12.0417 49.6484 12.2995 49.8828 12.6172C50.1484 12.9766 50.3385 13.3802 50.4531 13.8281C50.5729 14.276 50.6328 14.7188 50.6328 15.1562V16.4844C50.6328 16.7969 50.6615 17.0729 50.7188 17.3125C50.7812 17.5469 50.8724 17.75 50.9922 17.9219C51.1641 18.1667 51.401 18.3464 51.7031 18.4609C52.0104 18.5703 52.3776 18.625 52.8047 18.625V19.7578C52.4297 19.763 52.1016 19.8099 51.8203 19.8984C51.5443 19.9818 51.3177 20.1146 51.1406 20.2969C50.9688 20.474 50.8411 20.6953 50.7578 20.9609C50.6745 21.2266 50.6328 21.5417 50.6328 21.9062V23.2266C50.6328 23.6432 50.5755 24.0625 50.4609 24.4844C50.3464 24.9115 50.1693 25.2995 49.9297 25.6484C49.6849 25.9974 49.3776 26.2839 49.0078 26.5078C48.638 26.7318 48.1979 26.849 47.6875 26.8594L47.5234 25.9609Z" fill="#F8F5EC" />
<path d="M39.689 35H47.8322L59 19.3504L47.8322 3H39.689L24.566 35H17.1208L7 19.3504L17.1208 3H24.566" stroke="#89BCD9" stroke-width="4" stroke-linecap="round" />
<path d="M3.984 68.128C3.39733 68.128 2.864 67.9893 2.384 67.712C1.904 67.424 1.52 67.0293 1.232 66.528C0.954667 66.0267 0.816 65.4613 0.816 64.832C0.816 64.16 0.96 63.5787 1.248 63.088C1.536 62.5973 1.92533 62.2187 2.416 61.952C2.91733 61.6853 3.46667 61.552 4.064 61.552C4.66133 61.552 5.22667 61.7067 5.76 62.016C6.304 62.3253 6.69867 62.7307 6.944 63.232L6.816 63.584V55.84H7.568V68H6.8V66.08L6.96 66.432C6.69333 66.9333 6.29333 67.344 5.76 67.664C5.22667 67.9733 4.63467 68.128 3.984 68.128ZM4.176 67.472C4.656 67.472 5.088 67.3707 5.472 67.168C5.856 66.9547 6.16533 66.672 6.4 66.32C6.63467 65.9573 6.768 65.552 6.8 65.104V64.304C6.72533 63.8987 6.56 63.536 6.304 63.216C6.048 62.896 5.73867 62.6453 5.376 62.464C5.01333 62.272 4.61333 62.176 4.176 62.176C3.696 62.176 3.25867 62.288 2.864 62.512C2.46933 62.736 2.15467 63.0453 1.92 63.44C1.68533 63.8347 1.568 64.2933 1.568 64.816C1.568 65.3067 1.68533 65.7547 1.92 66.16C2.15467 66.5547 2.46933 66.8747 2.864 67.12C3.26933 67.3547 3.70667 67.472 4.176 67.472ZM13.1284 68.128C12.4777 68.128 11.9017 67.984 11.4004 67.696C10.899 67.408 10.5044 67.0187 10.2164 66.528C9.93904 66.0267 9.80038 65.4667 9.80038 64.848C9.80038 64.24 9.94971 63.6853 10.2484 63.184C10.547 62.6827 10.947 62.2827 11.4484 61.984C11.9604 61.6853 12.5257 61.536 13.1444 61.536C13.891 61.536 14.515 61.7547 15.0164 62.192C15.5284 62.6293 15.8964 63.2 16.1204 63.904L10.6484 66.016L10.4244 65.472L15.4324 63.52L15.2724 63.744C15.091 63.3173 14.8137 62.9493 14.4404 62.64C14.0777 62.3307 13.6297 62.176 13.0964 62.176C12.6164 62.176 12.1844 62.2933 11.8004 62.528C11.4164 62.7627 11.107 63.0773 10.8724 63.472C10.6484 63.8667 10.5364 64.3147 10.5364 64.816C10.5364 65.2853 10.643 65.7227 10.8564 66.128C11.0804 66.5333 11.3897 66.8587 11.7844 67.104C12.179 67.3493 12.6324 67.472 13.1444 67.472C13.4857 67.472 13.811 67.408 14.1204 67.28C14.4404 67.152 14.723 66.9867 14.9684 66.784L15.3524 67.328C15.0537 67.5627 14.707 67.7547 14.3124 67.904C13.9284 68.0533 13.5337 68.128 13.1284 68.128ZM20.2566 68.24L17.0886 61.744H17.9686L20.5766 67.424L20.1126 67.408L22.6246 61.744H23.4566L20.3526 68.24H20.2566ZM27.9721 68.128C27.3215 68.128 26.7455 67.984 26.2441 67.696C25.7428 67.408 25.3481 67.0187 25.0601 66.528C24.7828 66.0267 24.6441 65.4667 24.6441 64.848C24.6441 64.24 24.7935 63.6853 25.0921 63.184C25.3908 62.6827 25.7908 62.2827 26.2921 61.984C26.8041 61.6853 27.3695 61.536 27.9881 61.536C28.7348 61.536 29.3588 61.7547 29.8601 62.192C30.3721 62.6293 30.7401 63.2 30.9641 63.904L25.4921 66.016L25.2681 65.472L30.2761 63.52L30.1161 63.744C29.9348 63.3173 29.6575 62.9493 29.2841 62.64C28.9215 62.3307 28.4735 62.176 27.9401 62.176C27.4601 62.176 27.0281 62.2933 26.6441 62.528C26.2601 62.7627 25.9508 63.0773 25.7161 63.472C25.4921 63.8667 25.3801 64.3147 25.3801 64.816C25.3801 65.2853 25.4868 65.7227 25.7001 66.128C25.9241 66.5333 26.2335 66.8587 26.6281 67.104C27.0228 67.3493 27.4761 67.472 27.9881 67.472C28.3295 67.472 28.6548 67.408 28.9641 67.28C29.2841 67.152 29.5668 66.9867 29.8121 66.784L30.1961 67.328C29.8975 67.5627 29.5508 67.7547 29.1561 67.904C28.7721 68.0533 28.3775 68.128 27.9721 68.128ZM33.049 55.84H33.801V68H33.049V55.84ZM36.0348 64.832C36.0348 64.224 36.1788 63.6693 36.4668 63.168C36.7654 62.6667 37.1654 62.272 37.6668 61.984C38.1788 61.6853 38.7494 61.536 39.3788 61.536C40.0188 61.536 40.5894 61.6853 41.0908 61.984C41.5921 62.272 41.9868 62.6667 42.2748 63.168C42.5628 63.6693 42.7068 64.224 42.7068 64.832C42.7068 65.44 42.5628 65.9947 42.2748 66.496C41.9868 66.9973 41.5868 67.3973 41.0748 67.696C40.5734 67.984 40.0081 68.128 39.3788 68.128C38.7388 68.128 38.1681 67.9893 37.6668 67.712C37.1654 67.424 36.7654 67.0347 36.4668 66.544C36.1788 66.0427 36.0348 65.472 36.0348 64.832ZM36.7868 64.848C36.7868 65.3387 36.8988 65.7867 37.1228 66.192C37.3574 66.5867 37.6668 66.9013 38.0508 67.136C38.4454 67.3707 38.8828 67.488 39.3628 67.488C39.8428 67.488 40.2748 67.3707 40.6588 67.136C41.0534 66.9013 41.3628 66.5867 41.5868 66.192C41.8214 65.7867 41.9388 65.3387 41.9388 64.848C41.9388 64.3573 41.8214 63.9147 41.5868 63.52C41.3628 63.1147 41.0534 62.7947 40.6588 62.56C40.2748 62.3147 39.8428 62.192 39.3628 62.192C38.8721 62.192 38.4294 62.32 38.0348 62.576C37.6508 62.8213 37.3468 63.1467 37.1228 63.552C36.8988 63.9573 36.7868 64.3893 36.7868 64.848ZM48.3956 68.128C47.7983 68.128 47.2383 67.9733 46.7156 67.664C46.193 67.344 45.809 66.9333 45.5636 66.432L45.6916 66.16V71.008H44.9396V61.696H45.6116L45.6916 63.744L45.5476 63.28C45.825 62.7787 46.2303 62.368 46.7636 62.048C47.297 61.7173 47.8783 61.552 48.5076 61.552C49.105 61.552 49.6436 61.696 50.1236 61.984C50.6036 62.272 50.9823 62.6667 51.2596 63.168C51.5476 63.6587 51.6916 64.224 51.6916 64.864C51.6916 65.4933 51.5423 66.0587 51.2436 66.56C50.9556 67.0507 50.561 67.4347 50.0596 67.712C49.569 67.9893 49.0143 68.128 48.3956 68.128ZM48.2676 67.504C48.7583 67.504 49.201 67.3867 49.5956 67.152C50.001 66.9173 50.321 66.6027 50.5556 66.208C50.801 65.8027 50.9236 65.3547 50.9236 64.864C50.9236 64.3627 50.8063 63.9147 50.5716 63.52C50.337 63.1147 50.0223 62.7947 49.6276 62.56C49.2436 62.3253 48.8063 62.208 48.3156 62.208C47.8463 62.208 47.4196 62.3147 47.0356 62.528C46.6516 62.7413 46.3423 63.0293 46.1076 63.392C45.873 63.7547 45.7343 64.1653 45.6916 64.624V65.136C45.7236 65.5733 45.857 65.9733 46.0916 66.336C46.337 66.6987 46.6463 66.9867 47.0196 67.2C47.4036 67.4027 47.8196 67.504 48.2676 67.504ZM56.644 68.128C55.9933 68.128 55.4173 67.984 54.916 67.696C54.4147 67.408 54.02 67.0187 53.732 66.528C53.4547 66.0267 53.316 65.4667 53.316 64.848C53.316 64.24 53.4653 63.6853 53.764 63.184C54.0627 62.6827 54.4627 62.2827 54.964 61.984C55.476 61.6853 56.0413 61.536 56.66 61.536C57.4067 61.536 58.0307 61.7547 58.532 62.192C59.044 62.6293 59.412 63.2 59.636 63.904L54.164 66.016L53.94 65.472L58.948 63.52L58.788 63.744C58.6067 63.3173 58.3293 62.9493 57.956 62.64C57.5933 62.3307 57.1453 62.176 56.612 62.176C56.132 62.176 55.7 62.2933 55.316 62.528C54.932 62.7627 54.6227 63.0773 54.388 63.472C54.164 63.8667 54.052 64.3147 54.052 64.816C54.052 65.2853 54.1587 65.7227 54.372 66.128C54.596 66.5333 54.9053 66.8587 55.3 67.104C55.6947 67.3493 56.148 67.472 56.66 67.472C57.0013 67.472 57.3267 67.408 57.636 67.28C57.956 67.152 58.2387 66.9867 58.484 66.784L58.868 67.328C58.5693 67.5627 58.2227 67.7547 57.828 67.904C57.444 68.0533 57.0493 68.128 56.644 68.128ZM62.3769 61.744L62.4569 63.664L62.3609 63.424C62.4995 63.04 62.7182 62.7093 63.0169 62.432C63.3155 62.1547 63.6462 61.9413 64.0089 61.792C64.3822 61.6427 64.7395 61.568 65.0809 61.568L65.0489 62.304C64.5689 62.304 64.1315 62.4107 63.7369 62.624C63.3529 62.8373 63.0435 63.1253 62.8089 63.488C62.5849 63.84 62.4729 64.24 62.4729 64.688V68H61.7209V61.744H62.3769Z" fill="#89BCD9" />
<text x="33" y="52" text-anchor="middle" fill="#F8F5EC" font-family="system-ui, -apple-system, BlinkMacSystemFont, 'Segoe UI', sans-serif" font-size="7px">D.Gruchmann</text></svg>
