<svg width="99" height="73" viewBox="0 0 99 73" fill="none" xmlns="http://www.w3.org/2000/svg">
<path d="M34.3672 26.8594C33.862 26.8438 33.4245 26.7266 33.0547 26.5078C32.6849 26.2891 32.3776 26 32.1328 25.6406C31.8984 25.2969 31.7214 24.9115 31.6016 24.4844C31.4818 24.0625 31.4219 23.6432 31.4219 23.2266V21.9062C31.4219 21.1562 31.2422 20.612 30.8828 20.2734C30.5286 19.9349 29.9844 19.763 29.25 19.7578V18.625C29.9844 18.625 30.5286 18.4583 30.8828 18.125C31.2422 17.7865 31.4219 17.2396 31.4219 16.4844V15.1562C31.4219 14.7344 31.4766 14.3047 31.5859 13.8672C31.7005 13.4245 31.8802 13.0286 32.125 12.6797C32.3542 12.3464 32.6536 12.0755 33.0234 11.8672C33.3932 11.6536 33.8411 11.5391 34.3672 11.5234L34.5312 12.4219C34.1562 12.4323 33.8568 12.5208 33.6328 12.6875C33.4141 12.8542 33.25 13.0651 33.1406 13.3203C33.026 13.5807 32.9531 13.8724 32.9219 14.1953C32.8906 14.5182 32.875 14.8385 32.875 15.1562V16.4844C32.875 17.1094 32.7292 17.6589 32.4375 18.1328C32.151 18.6016 31.7057 18.9583 31.1016 19.2031C31.7057 19.4427 32.151 19.7995 32.4375 20.2734C32.724 20.7422 32.8698 21.2865 32.875 21.9062V23.2266C32.875 23.5495 32.901 23.8698 32.9531 24.1875C33.0052 24.5104 33.0964 24.7995 33.2266 25.0547C33.3516 25.3151 33.5182 25.5286 33.7266 25.6953C33.9401 25.862 34.2083 25.9505 34.5312 25.9609L34.3672 26.8594Z" fill="#F8F5EC"/>
<path d="M63.25 25.9609C63.5677 25.9505 63.8333 25.862 64.0469 25.6953C64.2604 25.5286 64.4323 25.3151 64.5625 25.0547C64.6875 24.7995 64.776 24.5104 64.8281 24.1875C64.8854 23.8698 64.9141 23.5495 64.9141 23.2266V21.9062C64.9141 21.4948 64.974 21.1146 65.0938 20.7656C65.2188 20.4167 65.4089 20.1146 65.6641 19.8594C65.7995 19.724 65.9505 19.6016 66.1172 19.4922C66.2891 19.3828 66.4766 19.2865 66.6797 19.2031C66.4714 19.1198 66.2786 19.0208 66.1016 18.9062C65.9297 18.7917 65.7786 18.6641 65.6484 18.5234C65.3984 18.263 65.2135 17.9609 65.0938 17.6172C64.974 17.2682 64.9141 16.8906 64.9141 16.4844V15.1562C64.9141 14.8385 64.8958 14.5182 64.8594 14.1953C64.8281 13.8724 64.7578 13.5807 64.6484 13.3203C64.5339 13.0651 64.3672 12.8542 64.1484 12.6875C63.9297 12.5208 63.6328 12.4323 63.2578 12.4219L63.4141 11.5234C63.9193 11.5391 64.3516 11.6458 64.7109 11.8438C65.0755 12.0417 65.375 12.2995 65.6094 12.6172C65.875 12.9766 66.0651 13.3802 66.1797 13.8281C66.2995 14.276 66.3594 14.7188 66.3594 15.1562V16.4844C66.3594 16.7969 66.388 17.0729 66.4453 17.3125C66.5078 17.5469 66.599 17.75 66.7188 17.9219C66.8906 18.1667 67.1276 18.3464 67.4297 18.4609C67.737 18.5703 68.1042 18.625 68.5312 18.625V19.7578C68.1562 19.763 67.8281 19.8099 67.5469 19.8984C67.2708 19.9818 67.0443 20.1146 66.8672 20.2969C66.6953 20.474 66.5677 20.6953 66.4844 20.9609C66.401 21.2266 66.3594 21.5417 66.3594 21.9062V23.2266C66.3594 23.6432 66.3021 24.0625 66.1875 24.4844C66.0729 24.9115 65.8958 25.2995 65.6562 25.6484C65.4115 25.9974 65.1042 26.2839 64.7344 26.5078C64.3646 26.7318 63.9245 26.849 63.4141 26.8594L63.25 25.9609Z" fill="#F8F5EC"/>
<path d="M55.4156 35H63.5588L74.7266 19.3504L63.5588 3H55.4156L40.2926 35H32.8474L22.7266 19.3504L32.8474 3H40.2926" stroke="#394B55" stroke-width="4" stroke-linecap="round"/>
<path d="M0 41.8906H5.90625C6.48438 41.8906 7.01042 42.0312 7.48438 42.3125C7.96354 42.5938 8.34375 42.9714 8.625 43.4453C8.90625 43.9141 9.04688 44.4375 9.04688 45.0156V49.9062C9.04688 50.474 8.90625 50.9922 8.625 51.4609C8.34375 51.9297 7.96354 52.3047 7.48438 52.5859C7.01042 52.862 6.48438 53 5.90625 53H0V41.8906ZM5.90625 51.3516C6.32292 51.3516 6.67708 51.2083 6.96875 50.9219C7.26042 50.6354 7.40625 50.2891 7.40625 49.8828V45.0156C7.40625 44.6042 7.26042 44.2552 6.96875 43.9688C6.67708 43.6771 6.32292 43.5312 5.90625 43.5312H1.64844V51.3516H5.90625ZM10.8828 52.0625C10.8828 51.7812 10.9818 51.5417 11.1797 51.3438C11.3776 51.1458 11.6172 51.0469 11.8984 51.0469C12.1849 51.0469 12.4245 51.1458 12.6172 51.3438C12.8151 51.5365 12.9141 51.776 12.9141 52.0625C12.9141 52.349 12.8151 52.5911 12.6172 52.7891C12.4245 52.9818 12.1849 53.0781 11.8984 53.0781C11.6172 53.0781 11.3776 52.9792 11.1797 52.7812C10.9818 52.5833 10.8828 52.3438 10.8828 52.0625ZM14.75 45.0156C14.75 44.4375 14.8984 43.9141 15.1953 43.4453C15.4974 42.9714 15.8984 42.5938 16.3984 42.3125C16.8984 42.0312 17.4531 41.8906 18.0625 41.8906H23.3203V43.5312H18.0625C17.6042 43.5312 17.2109 43.6771 16.8828 43.9688C16.5599 44.2552 16.3984 44.6016 16.3984 45.0078V49.8828C16.3984 50.2891 16.5599 50.638 16.8828 50.9297C17.2109 51.2161 17.6042 51.3594 18.0625 51.3594H20.6641C21.1276 51.3594 21.5208 51.2161 21.8438 50.9297C22.1667 50.638 22.3281 50.2891 22.3281 49.8828V48.4297H19.3125V46.7891H23.9766V49.875C23.9766 50.4479 23.8281 50.9714 23.5312 51.4453C23.2344 51.9193 22.8333 52.2969 22.3281 52.5781C21.8281 52.8594 21.2734 53 20.6641 53H18.0625C17.4531 53 16.8984 52.8594 16.3984 52.5781C15.8984 52.2969 15.4974 51.9193 15.1953 51.4453C14.8984 50.9714 14.75 50.4479 14.75 49.875V45.0156ZM25.8594 47.1719C25.8594 46.7552 25.9635 46.375 26.1719 46.0312C26.3854 45.6875 26.6667 45.4141 27.0156 45.2109C27.3698 45.0078 27.7604 44.9062 28.1875 44.9062H29.9922V46.5469H28.1875C28 46.5469 27.8385 46.612 27.7031 46.7422C27.5729 46.8672 27.5078 47.0208 27.5078 47.2031V53H25.8594V47.1719ZM31.4844 44.9062H33.1328V50.0547C33.1328 50.4193 33.2578 50.7292 33.5078 50.9844C33.7578 51.2396 34.0573 51.3672 34.4062 51.3672H37.2734V44.9062H38.9219V51.3594C38.9219 51.8125 38.7604 52.2005 38.4375 52.5234C38.1146 52.8411 37.7214 53 37.2578 53H34.4062C33.8698 53 33.3802 52.8698 32.9375 52.6094C32.4948 52.3438 32.1406 51.9896 31.875 51.5469C31.6146 51.1042 31.4844 50.6146 31.4844 50.0781V44.9062ZM40.7188 47.8281C40.7188 47.2917 40.8542 46.8021 41.125 46.3594C41.3958 45.9167 41.7578 45.5651 42.2109 45.3047C42.6641 45.0391 43.1667 44.9062 43.7188 44.9062H48.2734V46.5547H43.7188C43.349 46.5547 43.0312 46.6823 42.7656 46.9375C42.5 47.1875 42.3672 47.4922 42.3672 47.8516V50.0469C42.3672 50.4062 42.4974 50.7135 42.7578 50.9688C43.0234 51.224 43.3438 51.3516 43.7188 51.3516H48.2734V53H43.7188C43.1667 53 42.6641 52.8672 42.2109 52.6016C41.7578 52.3359 41.3958 51.9818 41.125 51.5391C40.8542 51.0911 40.7188 50.599 40.7188 50.0625V47.8281ZM50.0781 41.8906H51.7266V44.9062H54.2734C54.8359 44.9062 55.3464 45.0391 55.8047 45.3047C56.2682 45.5651 56.6354 45.9167 56.9062 46.3594C57.1823 46.7969 57.3203 47.2839 57.3203 47.8203V53H55.6719V47.8438C55.6719 47.5 55.5312 47.2005 55.25 46.9453C54.974 46.6849 54.6484 46.5547 54.2734 46.5547H51.7266V53H50.0781V41.8906ZM59.2031 46.5547C59.2031 46.1016 59.3646 45.7135 59.6875 45.3906C60.0104 45.0677 60.401 44.9062 60.8594 44.9062H63.3281C63.9948 44.9062 64.5417 45.1146 64.9688 45.5312C65.3854 45.1146 65.9323 44.9062 66.6094 44.9062H67.8281C68.3646 44.9062 68.8542 45.0391 69.2969 45.3047C69.7396 45.5651 70.0911 45.9167 70.3516 46.3594C70.6172 46.7969 70.75 47.2839 70.75 47.8203V53H69.1094V47.8438C69.1094 47.4844 68.9844 47.1797 68.7344 46.9297C68.4844 46.6745 68.1823 46.5469 67.8281 46.5469H66.6094C66.3802 46.5469 66.1849 46.6198 66.0234 46.7656C65.862 46.9062 65.7812 47.0781 65.7812 47.2812V53H64.1328V47.2812C64.1328 47.0781 64.0547 46.9062 63.8984 46.7656C63.7422 46.6198 63.5521 46.5469 63.3281 46.5469H60.8516V53H59.2031V46.5547ZM72.5469 47.8125C72.5469 47.276 72.6771 46.7891 72.9375 46.3516C73.2031 45.9141 73.5573 45.5651 74 45.3047C74.4427 45.0391 74.9323 44.9062 75.4688 44.9062H79.9844V53H78.3359V46.5547H75.4688C75.1198 46.5547 74.8203 46.6797 74.5703 46.9297C74.3203 47.1745 74.1953 47.474 74.1953 47.8281V50.0625C74.1953 50.4167 74.3203 50.7214 74.5703 50.9766C74.8203 51.2266 75.1198 51.3516 75.4688 51.3516H77.3984V53H75.4688C74.9323 53 74.4427 52.8698 74 52.6094C73.5573 52.3438 73.2031 51.9896 72.9375 51.5469C72.6771 51.1042 72.5469 50.6146 72.5469 50.0781V47.8125ZM81.8594 46.5469C81.8594 46.0938 82.0208 45.7083 82.3438 45.3906C82.6719 45.0677 83.0651 44.9062 83.5234 44.9062H86.375C86.9115 44.9062 87.401 45.0391 87.8438 45.3047C88.2865 45.5651 88.638 45.9167 88.8984 46.3594C89.1641 46.8021 89.2969 47.2917 89.2969 47.8281V53H87.6484V47.8516C87.6484 47.487 87.5234 47.1771 87.2734 46.9219C87.0286 46.6667 86.7292 46.5391 86.375 46.5391H83.5078V53H81.8594V46.5469ZM91.1719 46.5469C91.1719 46.0938 91.3333 45.7083 91.6562 45.3906C91.9844 45.0677 92.3776 44.9062 92.8359 44.9062H95.6875C96.224 44.9062 96.7135 45.0391 97.1562 45.3047C97.599 45.5651 97.9505 45.9167 98.2109 46.3594C98.4766 46.8021 98.6094 47.2917 98.6094 47.8281V53H96.9609V47.8516C96.9609 47.487 96.8359 47.1771 96.5859 46.9219C96.3411 46.6667 96.0417 46.5391 95.6875 46.5391H92.8203V53H91.1719V46.5469Z" fill="#F8F5EC"/>
<path d="M19.7106 68.128C19.1239 68.128 18.5906 67.9893 18.1106 67.712C17.6306 67.424 17.2466 67.0293 16.9586 66.528C16.6812 66.0267 16.5426 65.4613 16.5426 64.832C16.5426 64.16 16.6866 63.5787 16.9746 63.088C17.2626 62.5973 17.6519 62.2187 18.1426 61.952C18.6439 61.6853 19.1932 61.552 19.7906 61.552C20.3879 61.552 20.9532 61.7067 21.4866 62.016C22.0306 62.3253 22.4252 62.7307 22.6706 63.232L22.5426 63.584V55.84H23.2946V68H22.5266V66.08L22.6866 66.432C22.4199 66.9333 22.0199 67.344 21.4866 67.664C20.9532 67.9733 20.3612 68.128 19.7106 68.128ZM19.9026 67.472C20.3826 67.472 20.8146 67.3707 21.1986 67.168C21.5826 66.9547 21.8919 66.672 22.1266 66.32C22.3612 65.9573 22.4946 65.552 22.5266 65.104V64.304C22.4519 63.8987 22.2866 63.536 22.0306 63.216C21.7746 62.896 21.4652 62.6453 21.1026 62.464C20.7399 62.272 20.3399 62.176 19.9026 62.176C19.4226 62.176 18.9852 62.288 18.5906 62.512C18.1959 62.736 17.8812 63.0453 17.6466 63.44C17.4119 63.8347 17.2946 64.2933 17.2946 64.816C17.2946 65.3067 17.4119 65.7547 17.6466 66.16C17.8812 66.5547 18.1959 66.8747 18.5906 67.12C18.9959 67.3547 19.4332 67.472 19.9026 67.472ZM28.8549 68.128C28.2043 68.128 27.6283 67.984 27.1269 67.696C26.6256 67.408 26.2309 67.0187 25.9429 66.528C25.6656 66.0267 25.5269 65.4667 25.5269 64.848C25.5269 64.24 25.6763 63.6853 25.9749 63.184C26.2736 62.6827 26.6736 62.2827 27.1749 61.984C27.6869 61.6853 28.2523 61.536 28.8709 61.536C29.6176 61.536 30.2416 61.7547 30.7429 62.192C31.2549 62.6293 31.6229 63.2 31.8469 63.904L26.3749 66.016L26.1509 65.472L31.1589 63.52L30.9989 63.744C30.8176 63.3173 30.5403 62.9493 30.1669 62.64C29.8043 62.3307 29.3563 62.176 28.8229 62.176C28.3429 62.176 27.9109 62.2933 27.5269 62.528C27.1429 62.7627 26.8336 63.0773 26.5989 63.472C26.3749 63.8667 26.2629 64.3147 26.2629 64.816C26.2629 65.2853 26.3696 65.7227 26.5829 66.128C26.8069 66.5333 27.1163 66.8587 27.5109 67.104C27.9056 67.3493 28.3589 67.472 28.8709 67.472C29.2123 67.472 29.5376 67.408 29.8469 67.28C30.1669 67.152 30.4496 66.9867 30.6949 66.784L31.0789 67.328C30.7803 67.5627 30.4336 67.7547 30.0389 67.904C29.6549 68.0533 29.2603 68.128 28.8549 68.128ZM35.9832 68.24L32.8152 61.744H33.6952L36.3032 67.424L35.8392 67.408L38.3512 61.744H39.1832L36.0792 68.24H35.9832ZM43.6987 68.128C43.048 68.128 42.472 67.984 41.9707 67.696C41.4694 67.408 41.0747 67.0187 40.7867 66.528C40.5094 66.0267 40.3707 65.4667 40.3707 64.848C40.3707 64.24 40.52 63.6853 40.8187 63.184C41.1174 62.6827 41.5174 62.2827 42.0187 61.984C42.5307 61.6853 43.096 61.536 43.7147 61.536C44.4614 61.536 45.0854 61.7547 45.5867 62.192C46.0987 62.6293 46.4667 63.2 46.6907 63.904L41.2187 66.016L40.9947 65.472L46.0027 63.52L45.8427 63.744C45.6614 63.3173 45.384 62.9493 45.0107 62.64C44.648 62.3307 44.2 62.176 43.6667 62.176C43.1867 62.176 42.7547 62.2933 42.3707 62.528C41.9867 62.7627 41.6774 63.0773 41.4427 63.472C41.2187 63.8667 41.1067 64.3147 41.1067 64.816C41.1067 65.2853 41.2134 65.7227 41.4267 66.128C41.6507 66.5333 41.96 66.8587 42.3547 67.104C42.7494 67.3493 43.2027 67.472 43.7147 67.472C44.056 67.472 44.3814 67.408 44.6907 67.28C45.0107 67.152 45.2934 66.9867 45.5387 66.784L45.9227 67.328C45.624 67.5627 45.2774 67.7547 44.8827 67.904C44.4987 68.0533 44.104 68.128 43.6987 68.128ZM48.7756 55.84H49.5276V68H48.7756V55.84ZM51.7613 64.832C51.7613 64.224 51.9053 63.6693 52.1933 63.168C52.492 62.6667 52.892 62.272 53.3933 61.984C53.9053 61.6853 54.476 61.536 55.1053 61.536C55.7453 61.536 56.316 61.6853 56.8173 61.984C57.3186 62.272 57.7133 62.6667 58.0013 63.168C58.2893 63.6693 58.4333 64.224 58.4333 64.832C58.4333 65.44 58.2893 65.9947 58.0013 66.496C57.7133 66.9973 57.3133 67.3973 56.8013 67.696C56.3 67.984 55.7346 68.128 55.1053 68.128C54.4653 68.128 53.8946 67.9893 53.3933 67.712C52.892 67.424 52.492 67.0347 52.1933 66.544C51.9053 66.0427 51.7613 65.472 51.7613 64.832ZM52.5133 64.848C52.5133 65.3387 52.6253 65.7867 52.8493 66.192C53.084 66.5867 53.3933 66.9013 53.7773 67.136C54.172 67.3707 54.6093 67.488 55.0893 67.488C55.5693 67.488 56.0013 67.3707 56.3853 67.136C56.78 66.9013 57.0893 66.5867 57.3133 66.192C57.548 65.7867 57.6653 65.3387 57.6653 64.848C57.6653 64.3573 57.548 63.9147 57.3133 63.52C57.0893 63.1147 56.78 62.7947 56.3853 62.56C56.0013 62.3147 55.5693 62.192 55.0893 62.192C54.5986 62.192 54.156 62.32 53.7613 62.576C53.3773 62.8213 53.0733 63.1467 52.8493 63.552C52.6253 63.9573 52.5133 64.3893 52.5133 64.848ZM64.1222 68.128C63.5249 68.128 62.9649 67.9733 62.4422 67.664C61.9195 67.344 61.5355 66.9333 61.2902 66.432L61.4182 66.16V71.008H60.6662V61.696H61.3382L61.4182 63.744L61.2742 63.28C61.5515 62.7787 61.9569 62.368 62.4902 62.048C63.0235 61.7173 63.6049 61.552 64.2342 61.552C64.8315 61.552 65.3702 61.696 65.8502 61.984C66.3302 62.272 66.7089 62.6667 66.9862 63.168C67.2742 63.6587 67.4182 64.224 67.4182 64.864C67.4182 65.4933 67.2689 66.0587 66.9702 66.56C66.6822 67.0507 66.2875 67.4347 65.7862 67.712C65.2955 67.9893 64.7409 68.128 64.1222 68.128ZM63.9942 67.504C64.4849 67.504 64.9275 67.3867 65.3222 67.152C65.7275 66.9173 66.0475 66.6027 66.2822 66.208C66.5275 65.8027 66.6502 65.3547 66.6502 64.864C66.6502 64.3627 66.5329 63.9147 66.2982 63.52C66.0635 63.1147 65.7489 62.7947 65.3542 62.56C64.9702 62.3253 64.5329 62.208 64.0422 62.208C63.5729 62.208 63.1462 62.3147 62.7622 62.528C62.3782 62.7413 62.0689 63.0293 61.8342 63.392C61.5995 63.7547 61.4609 64.1653 61.4182 64.624V65.136C61.4502 65.5733 61.5835 65.9733 61.8182 66.336C62.0635 66.6987 62.3729 66.9867 62.7462 67.2C63.1302 67.4027 63.5462 67.504 63.9942 67.504ZM72.3706 68.128C71.7199 68.128 71.1439 67.984 70.6426 67.696C70.1412 67.408 69.7466 67.0187 69.4586 66.528C69.1812 66.0267 69.0426 65.4667 69.0426 64.848C69.0426 64.24 69.1919 63.6853 69.4906 63.184C69.7892 62.6827 70.1892 62.2827 70.6906 61.984C71.2026 61.6853 71.7679 61.536 72.3866 61.536C73.1332 61.536 73.7572 61.7547 74.2586 62.192C74.7706 62.6293 75.1386 63.2 75.3626 63.904L69.8906 66.016L69.6666 65.472L74.6746 63.52L74.5146 63.744C74.3332 63.3173 74.0559 62.9493 73.6826 62.64C73.3199 62.3307 72.8719 62.176 72.3386 62.176C71.8586 62.176 71.4266 62.2933 71.0426 62.528C70.6586 62.7627 70.3492 63.0773 70.1146 63.472C69.8906 63.8667 69.7786 64.3147 69.7786 64.816C69.7786 65.2853 69.8852 65.7227 70.0986 66.128C70.3226 66.5333 70.6319 66.8587 71.0266 67.104C71.4212 67.3493 71.8746 67.472 72.3866 67.472C72.7279 67.472 73.0532 67.408 73.3626 67.28C73.6826 67.152 73.9652 66.9867 74.2106 66.784L74.5946 67.328C74.2959 67.5627 73.9492 67.7547 73.5546 67.904C73.1706 68.0533 72.7759 68.128 72.3706 68.128ZM78.1034 61.744L78.1834 63.664L78.0874 63.424C78.2261 63.04 78.4448 62.7093 78.7434 62.432C79.0421 62.1547 79.3728 61.9413 79.7354 61.792C80.1088 61.6427 80.4661 61.568 80.8074 61.568L80.7754 62.304C80.2954 62.304 79.8581 62.4107 79.4634 62.624C79.0794 62.8373 78.7701 63.1253 78.5354 63.488C78.3114 63.84 78.1994 64.24 78.1994 64.688V68H77.4474V61.744H78.1034Z" fill="#394B55"/>
</svg>
