<svg width="64" height="64" viewBox="0 0 64 64" fill="none" xmlns="http://www.w3.org/2000/svg">
<circle cx="32" cy="32" r="32" transform="rotate(-90 32 32)" fill="#042639"/>
<path d="M17.6406 39.8594C17.1354 39.8438 16.6979 39.7266 16.3281 39.5078C15.9583 39.2891 15.651 39 15.4062 38.6406C15.1719 38.2969 14.9948 37.9115 14.875 37.4844C14.7552 37.0625 14.6953 36.6432 14.6953 36.2266V34.9062C14.6953 34.1562 14.5156 33.612 14.1562 33.2734C13.8021 32.9349 13.2578 32.763 12.5234 32.7578V31.625C13.2578 31.625 13.8021 31.4583 14.1562 31.125C14.5156 30.7865 14.6953 30.2396 14.6953 29.4844V28.1562C14.6953 27.7344 14.75 27.3047 14.8594 26.8672C14.974 26.4245 15.1536 26.0286 15.3984 25.6797C15.6276 25.3464 15.9271 25.0755 16.2969 24.8672C16.6667 24.6536 17.1146 24.5391 17.6406 24.5234L17.8047 25.4219C17.4297 25.4323 17.1302 25.5208 16.9062 25.6875C16.6875 25.8542 16.5234 26.0651 16.4141 26.3203C16.2995 26.5807 16.2266 26.8724 16.1953 27.1953C16.1641 27.5182 16.1484 27.8385 16.1484 28.1562V29.4844C16.1484 30.1094 16.0026 30.6589 15.7109 31.1328C15.4245 31.6016 14.9792 31.9583 14.375 32.2031C14.9792 32.4427 15.4245 32.7995 15.7109 33.2734C15.9974 33.7422 16.1432 34.2865 16.1484 34.9062V36.2266C16.1484 36.5495 16.1745 36.8698 16.2266 37.1875C16.2786 37.5104 16.3698 37.7995 16.5 38.0547C16.625 38.3151 16.7917 38.5286 17 38.6953C17.2135 38.862 17.4818 38.9505 17.8047 38.9609L17.6406 39.8594Z" fill="#F8F5EC"/>
<path d="M46.5234 38.9609C46.8411 38.9505 47.1068 38.862 47.3203 38.6953C47.5339 38.5286 47.7057 38.3151 47.8359 38.0547C47.9609 37.7995 48.0495 37.5104 48.1016 37.1875C48.1589 36.8698 48.1875 36.5495 48.1875 36.2266V34.9062C48.1875 34.4948 48.2474 34.1146 48.3672 33.7656C48.4922 33.4167 48.6823 33.1146 48.9375 32.8594C49.0729 32.724 49.224 32.6016 49.3906 32.4922C49.5625 32.3828 49.75 32.2865 49.9531 32.2031C49.7448 32.1198 49.5521 32.0208 49.375 31.9062C49.2031 31.7917 49.0521 31.6641 48.9219 31.5234C48.6719 31.263 48.487 30.9609 48.3672 30.6172C48.2474 30.2682 48.1875 29.8906 48.1875 29.4844V28.1562C48.1875 27.8385 48.1693 27.5182 48.1328 27.1953C48.1016 26.8724 48.0312 26.5807 47.9219 26.3203C47.8073 26.0651 47.6406 25.8542 47.4219 25.6875C47.2031 25.5208 46.9062 25.4323 46.5312 25.4219L46.6875 24.5234C47.1927 24.5391 47.625 24.6458 47.9844 24.8438C48.349 25.0417 48.6484 25.2995 48.8828 25.6172C49.1484 25.9766 49.3385 26.3802 49.4531 26.8281C49.5729 27.276 49.6328 27.7188 49.6328 28.1562V29.4844C49.6328 29.7969 49.6615 30.0729 49.7188 30.3125C49.7812 30.5469 49.8724 30.75 49.9922 30.9219C50.1641 31.1667 50.401 31.3464 50.7031 31.4609C51.0104 31.5703 51.3776 31.625 51.8047 31.625V32.7578C51.4297 32.763 51.1016 32.8099 50.8203 32.8984C50.5443 32.9818 50.3177 33.1146 50.1406 33.2969C49.9688 33.474 49.8411 33.6953 49.7578 33.9609C49.6745 34.2266 49.6328 34.5417 49.6328 34.9062V36.2266C49.6328 36.6432 49.5755 37.0625 49.4609 37.4844C49.3464 37.9115 49.1693 38.2995 48.9297 38.6484C48.6849 38.9974 48.3776 39.2839 48.0078 39.5078C47.638 39.7318 47.1979 39.849 46.6875 39.8594L46.5234 38.9609Z" fill="#F8F5EC"/>
<path d="M38.689 48H46.8322L58 32.3504L46.8322 16H38.689L23.566 48H16.1208L6 32.3504L16.1208 16H23.566" stroke="#89BCD9" stroke-width="4" stroke-linecap="round"/>
</svg>
